<?xml version="1.0" encoding="utf-8"?>
<!-- Generator: Adobe Illustrator 17.0.0, SVG Export Plug-In . SVG Version: 6.00 Build 0)  -->
<!DOCTYPE svg PUBLIC "-//W3C//DTD SVG 1.1//EN" "http://www.w3.org/Graphics/SVG/1.1/DTD/svg11.dtd">
<svg version="1.1" id="Layer_1" xmlns="http://www.w3.org/2000/svg" xmlns:xlink="http://www.w3.org/1999/xlink" x="0px" y="0px"
	 width="53px" height="56px" viewBox="0 0 53 56" enable-background="new 0 0 53 56" xml:space="preserve">
<g>
	<path fill="none" d="M52.894,34.286c0,0-18.247-33.822-18.249-33.826c-0.005-0.01-0.011-0.018-0.016-0.027
		c-0.013-0.023-0.027-0.045-0.043-0.066c-0.005-0.007-0.01-0.014-0.015-0.021c-0.018-0.024-0.037-0.047-0.057-0.068
		c-0.004-0.005-0.008-0.01-0.013-0.014c-0.002-0.002-0.004-0.005-0.006-0.007c-0.023-0.023-0.047-0.044-0.072-0.065
		c-0.005-0.003-0.01-0.007-0.015-0.011c-0.024-0.018-0.048-0.035-0.073-0.051c-0.007-0.004-0.014-0.009-0.022-0.014
		c-0.007-0.004-0.013-0.008-0.019-0.012c-0.011-0.006-0.023-0.011-0.035-0.016c-0.014-0.007-0.029-0.015-0.043-0.021
		c-0.007-0.003-0.015-0.005-0.022-0.008c-0.011-0.005-0.022-0.008-0.034-0.012c-0.007-0.003-0.013-0.006-0.02-0.008
		c-0.003-0.001-0.005-0.002-0.008-0.002c-0.004-0.002-0.009-0.002-0.013-0.003c-0.007-0.002-0.015-0.004-0.022-0.006
		c-0.014-0.003-0.027-0.008-0.041-0.011c-0.003-0.001-0.006-0.001-0.012-0.002c-0.007-0.002-0.013-0.002-0.019-0.003
		c-0.005-0.001-0.01-0.002-0.014-0.002c-0.007-0.001-0.013-0.002-0.02-0.003c-0.007-0.001-0.014-0.002-0.021-0.003
		c-0.003-0.001-0.005-0.001-0.008-0.001c-0.011-0.001-0.022-0.001-0.034-0.002C33.914,0.001,33.899,0,33.877,0
		c-0.015,0-0.031,0.001-0.046,0.002c-0.011,0.001-0.022,0.001-0.034,0.002c-0.003,0-0.005,0-0.008,0.001
		c-0.007,0.001-0.014,0.002-0.021,0.003c-0.007,0.001-0.013,0.002-0.02,0.003c-0.005,0.001-0.01,0.002-0.014,0.002
		c-0.006,0.001-0.013,0.002-0.023,0.003c-0.003,0.001-0.006,0.001-0.009,0.002c-0.013,0.003-0.025,0.007-0.037,0.01
		c-0.002,0-0.004,0.001-0.006,0.002c-0.005,0.001-0.01,0.002-0.015,0.004c-0.004,0.001-0.008,0.002-0.012,0.003
		c-0.004,0.002-0.008,0.002-0.013,0.003c-0.007,0.002-0.013,0.005-0.02,0.008c-0.002,0-0.004,0.001-0.006,0.002
		c-0.013,0.004-0.026,0.009-0.039,0.014c-0.011,0.004-0.022,0.01-0.033,0.015c-0.014,0.007-0.028,0.013-0.042,0.02
		c-0.01,0.005-0.019,0.01-0.029,0.016c-0.004,0.002-0.008,0.004-0.015,0.009c-0.009,0.005-0.018,0.011-0.027,0.017
		c-0.008,0.005-0.017,0.011-0.025,0.017c-0.012,0.008-0.023,0.017-0.035,0.026c-0.004,0.003-0.009,0.007-0.013,0.01
		c-0.003,0.002-0.006,0.004-0.009,0.007c-0.002,0.002-0.004,0.004-0.007,0.006c-0.013,0.012-0.026,0.024-0.039,0.036
		c-0.007,0.007-0.014,0.013-0.021,0.02c-0.001,0.002-0.003,0.003-0.006,0.006c-0.01,0.01-0.019,0.021-0.028,0.032
		c-0.013,0.015-0.026,0.031-0.038,0.047c-0.005,0.006-0.01,0.013-0.015,0.02c-0.004,0.005-0.008,0.011-0.012,0.016
		c-0.008,0.012-0.015,0.025-0.023,0.037c-0.006,0.01-0.013,0.02-0.019,0.031c-0.002,0.003-0.004,0.007-0.008,0.015L14.866,34.286
		c-0.071,0.132-0.106,0.276-0.106,0.42c0,0.195,0.065,0.39,0.191,0.549c0.219,0.276,0.581,0.392,0.917,0.295l11.943-3.448
		l5.431,5.937c0.004,0.004,0.008,0.007,0.011,0.011c0.012,0.012,0.024,0.024,0.036,0.036c0.009,0.008,0.017,0.016,0.027,0.024
		c0.014,0.012,0.028,0.022,0.042,0.034c0.009,0.007,0.017,0.013,0.026,0.019c0.016,0.012,0.033,0.022,0.05,0.032
		c0.008,0.005,0.015,0.01,0.023,0.014c0.02,0.011,0.041,0.022,0.061,0.031c0.005,0.003,0.011,0.006,0.016,0.008
		c0.024,0.011,0.049,0.02,0.075,0.029c0.002,0.001,0.005,0.002,0.007,0.002c0.028,0.009,0.056,0.017,0.086,0.023
		c0.029,0.006,0.058,0.011,0.089,0.014c0.03,0.003,0.06,0.005,0.09,0.005c0.03,0,0.061-0.002,0.091-0.005
		c0.03-0.003,0.059-0.008,0.088-0.014c0.029-0.006,0.057-0.014,0.085-0.022c0.002-0.001,0.005-0.002,0.007-0.003
		c0.025-0.009,0.05-0.018,0.075-0.029c0.005-0.002,0.011-0.005,0.016-0.008c0.021-0.009,0.042-0.02,0.061-0.031
		c0.008-0.004,0.015-0.009,0.023-0.014c0.017-0.01,0.034-0.021,0.05-0.032c0.009-0.006,0.018-0.013,0.026-0.02
		c0.014-0.011,0.028-0.022,0.042-0.034c0.009-0.008,0.018-0.016,0.026-0.024c0.013-0.012,0.025-0.024,0.037-0.036
		c0.004-0.004,0.008-0.007,0.011-0.011l5.431-5.937l11.943,3.448c0.337,0.097,0.698-0.019,0.917-0.295
		C53.028,34.978,53.062,34.597,52.894,34.286z M27.334,30.414l-9.949,2.872L31.962,6.267L27.334,30.414z M34.749,35.2v-4.091
		c0-0.485-0.389-0.878-0.869-0.878s-0.869,0.393-0.869,0.878V35.2l-3.988-4.359l3.988-20.809v17.482
		c0,0.485,0.389,0.878,0.869,0.878c0.48,0,0.869-0.393,0.869-0.878V10.031l3.988,20.809L34.749,35.2z M40.426,30.414L35.798,6.267
		l14.577,27.019L40.426,30.414z M13.287,52.892c-0.538-0.12-1.075-0.273-1.596-0.453c-0.454-0.157-0.948,0.086-1.104,0.545
		c-0.032,0.094-0.047,0.191-0.047,0.285c0,0.365,0.227,0.705,0.587,0.83c0.582,0.202,1.183,0.373,1.785,0.507
		c0.469,0.105,0.933-0.194,1.036-0.667C14.052,53.466,13.756,52.996,13.287,52.892z M18.248,53.152
		c-0.549,0.058-1.11,0.089-1.667,0.092c-0.478,0.002-0.865,0.395-0.865,0.878c0.002,0.489,0.393,0.88,0.873,0.878
		c0.614-0.003,1.233-0.037,1.84-0.102c0.477-0.051,0.824-0.483,0.773-0.965C19.153,53.451,18.726,53.101,18.248,53.152z
		 M23.072,51.872c-0.507,0.222-1.032,0.421-1.562,0.591c-0.37,0.119-0.606,0.464-0.606,0.836c0,0.088,0.013,0.178,0.041,0.266
		c0.146,0.462,0.634,0.717,1.092,0.57c0.586-0.188,1.167-0.408,1.728-0.654c0.44-0.193,0.642-0.71,0.451-1.155
		C24.024,51.883,23.512,51.679,23.072,51.872z M27.296,49.19c-0.42,0.366-0.862,0.715-1.316,1.036
		c-0.241,0.171-0.37,0.443-0.37,0.719c0,0.174,0.051,0.35,0.158,0.503c0.276,0.397,0.818,0.493,1.211,0.214
		c0.501-0.355,0.99-0.74,1.454-1.145c0.363-0.316,0.404-0.871,0.09-1.238C28.208,48.914,27.659,48.874,27.296,49.19z M31.737,45.081
		c-0.408-0.256-0.943-0.13-1.197,0.281c-0.293,0.474-0.613,0.94-0.952,1.383c-0.122,0.16-0.181,0.349-0.181,0.536
		c0,0.263,0.116,0.522,0.338,0.696c0.38,0.296,0.926,0.225,1.219-0.158c0.375-0.49,0.728-1.004,1.052-1.529
		C32.269,45.878,32.144,45.337,31.737,45.081z M2.563,43.324c-0.185-0.525-0.342-1.066-0.468-1.607
		c-0.109-0.472-0.576-0.765-1.044-0.656c-0.401,0.095-0.672,0.455-0.672,0.854c0,0.066,0.007,0.133,0.023,0.2
		c0.14,0.606,0.316,1.211,0.523,1.798c0.161,0.457,0.658,0.695,1.11,0.532C2.488,44.283,2.724,43.781,2.563,43.324z M4.019,46.328
		c-0.258-0.409-0.795-0.529-1.2-0.268c-0.26,0.167-0.402,0.451-0.402,0.741c0,0.162,0.044,0.325,0.136,0.471
		c0.332,0.524,0.696,1.036,1.083,1.519c0.302,0.377,0.849,0.436,1.222,0.131c0.373-0.305,0.431-0.857,0.13-1.234
		C4.642,47.255,4.316,46.797,4.019,46.328z M8.701,51.003c-0.468-0.294-0.924-0.618-1.357-0.962
		c-0.377-0.301-0.923-0.236-1.221,0.145c-0.126,0.161-0.187,0.353-0.187,0.543c0,0.259,0.113,0.516,0.331,0.69
		c0.484,0.385,0.994,0.747,1.516,1.075c0.408,0.256,0.943,0.13,1.197-0.282C9.234,51.8,9.109,51.258,8.701,51.003z M1.738,38.309
		c0-0.525,0.031-1.054,0.092-1.573c0.057-0.482-0.284-0.918-0.76-0.975c-0.477-0.057-0.909,0.286-0.966,0.768
		C0.035,37.117,0,37.715,0,38.309c0,0.485,0.389,0.878,0.869,0.878C1.349,39.187,1.738,38.794,1.738,38.309z M1.5,34.025
		c0.447,0.176,0.951-0.046,1.126-0.498c0.198-0.513,0.432-1.019,0.693-1.503c0.23-0.426,0.075-0.959-0.347-1.191
		c-0.422-0.232-0.949-0.075-1.179,0.35c-0.296,0.549-0.561,1.122-0.786,1.704c-0.041,0.105-0.06,0.213-0.06,0.319
		C0.947,33.558,1.157,33.889,1.5,34.025z M6.527,26.94c-0.307-0.373-0.855-0.423-1.224-0.113c-0.477,0.4-0.933,0.836-1.356,1.294
		c-0.156,0.169-0.234,0.384-0.234,0.599c0,0.235,0.093,0.469,0.276,0.642c0.351,0.331,0.901,0.312,1.229-0.043
		c0.374-0.404,0.776-0.788,1.197-1.143C6.784,27.866,6.834,27.312,6.527,26.94z M11.272,24.669
		c-0.149-0.461-0.639-0.712-1.095-0.562c-0.59,0.194-1.174,0.428-1.735,0.697c-0.314,0.15-0.497,0.465-0.497,0.794
		c0,0.126,0.027,0.253,0.084,0.375c0.205,0.438,0.724,0.625,1.157,0.418c0.495-0.237,1.01-0.443,1.53-0.614
		C11.171,25.625,11.421,25.13,11.272,24.669z M33.562,40.104c-0.465-0.121-0.939,0.161-1.059,0.631
		c-0.138,0.541-0.306,1.082-0.498,1.607c-0.037,0.1-0.054,0.203-0.054,0.305c0,0.357,0.217,0.692,0.568,0.823
		c0.45,0.168,0.95-0.064,1.116-0.519c0.213-0.581,0.398-1.179,0.551-1.778C34.306,40.704,34.026,40.226,33.562,40.104z"/>
</g>
</svg>
