<?xml version="1.0" encoding="utf-8"?>
<!-- Generator: Adobe Illustrator 17.0.0, SVG Export Plug-In . SVG Version: 6.00 Build 0)  -->
<!DOCTYPE svg PUBLIC "-//W3C//DTD SVG 1.1//EN" "http://www.w3.org/Graphics/SVG/1.1/DTD/svg11.dtd">
<svg version="1.1" id="Layer_1" xmlns="http://www.w3.org/2000/svg" xmlns:xlink="http://www.w3.org/1999/xlink" x="0px" y="0px"
	 width="32px" height="31px" viewBox="0 0 32 31" enable-background="new 0 0 32 31" xml:space="preserve">
<g>
	<path fill="none" d="M23.668,2.176C23.412,0.936,22.298,0,20.965,0c-0.305,0-0.552,0.243-0.552,0.544
		c0,0.301,0.247,0.544,0.552,0.544c0.913,0,1.655,0.732,1.655,1.631c0,0.9-0.743,1.632-1.655,1.632
		c-0.305,0-0.552,0.243-0.552,0.544c0,0.301,0.247,0.544,0.552,0.544c1.332,0,2.446-0.936,2.703-2.175h7.228v4.895H1.103V3.263
		h9.379c0.305,0,0.552-0.243,0.552-0.544s-0.247-0.544-0.552-0.544H9.481c0.228-0.632,0.835-1.088,1.554-1.088
		c0.912,0,1.655,0.732,1.655,1.631c0,0.9-0.743,1.632-1.655,1.632c-0.305,0-0.552,0.243-0.552,0.544
		c0,0.301,0.247,0.544,0.552,0.544c1.521,0,2.759-1.22,2.759-2.719C13.793,1.22,12.556,0,11.035,0C9.703,0,8.588,0.936,8.332,2.176
		H0V31h32V2.176H23.668z M30.897,29.912H1.103V9.246h29.793V29.912z M14.345,1.088C15.257,1.088,16,1.82,16,2.719
		c0,0.9-0.743,1.632-1.655,1.632c-0.305,0-0.552,0.243-0.552,0.544c0,0.301,0.247,0.544,0.552,0.544c1.521,0,2.759-1.22,2.759-2.719
		C17.103,1.22,15.866,0,14.345,0c-0.305,0-0.552,0.243-0.552,0.544C13.793,0.845,14.04,1.088,14.345,1.088z M17.655,1.088
		c0.913,0,1.655,0.732,1.655,1.631c0,0.9-0.743,1.632-1.655,1.632c-0.305,0-0.552,0.243-0.552,0.544
		c0,0.301,0.247,0.544,0.552,0.544c1.521,0,2.759-1.22,2.759-2.719C20.414,1.22,19.176,0,17.655,0c-0.305,0-0.552,0.243-0.552,0.544
		C17.103,0.845,17.35,1.088,17.655,1.088z M12.138,13.596c0.305,0,0.552-0.243,0.552-0.544c0-0.301-0.247-0.544-0.552-0.544
		c-0.305,0-0.552,0.243-0.552,0.544C11.586,13.353,11.833,13.596,12.138,13.596z M16,13.596c0.305,0,0.552-0.243,0.552-0.544
		c0-0.301-0.247-0.544-0.552-0.544c-0.305,0-0.552,0.243-0.552,0.544C15.448,13.353,15.695,13.596,16,13.596z M19.862,13.596
		c0.305,0,0.552-0.243,0.552-0.544c0-0.301-0.247-0.544-0.552-0.544s-0.552,0.243-0.552,0.544
		C19.31,13.353,19.557,13.596,19.862,13.596z M23.724,13.596c0.305,0,0.552-0.243,0.552-0.544c0-0.301-0.247-0.544-0.552-0.544
		c-0.305,0-0.552,0.243-0.552,0.544C23.172,13.353,23.419,13.596,23.724,13.596z M27.586,13.596c0.305,0,0.552-0.243,0.552-0.544
		c0-0.301-0.247-0.544-0.552-0.544s-0.552,0.243-0.552,0.544C27.035,13.353,27.282,13.596,27.586,13.596z M4.414,17.947
		c0.305,0,0.552-0.244,0.552-0.544c0-0.3-0.247-0.544-0.552-0.544c-0.305,0-0.552,0.244-0.552,0.544
		C3.862,17.704,4.109,17.947,4.414,17.947z M8.276,17.947c0.305,0,0.552-0.244,0.552-0.544c0-0.3-0.247-0.544-0.552-0.544
		c-0.305,0-0.552,0.244-0.552,0.544C7.724,17.704,7.971,17.947,8.276,17.947z M12.138,17.947c0.305,0,0.552-0.244,0.552-0.544
		c0-0.3-0.247-0.544-0.552-0.544c-0.305,0-0.552,0.244-0.552,0.544C11.586,17.704,11.833,17.947,12.138,17.947z M16,17.947
		c0.305,0,0.552-0.244,0.552-0.544c0-0.3-0.247-0.544-0.552-0.544c-0.305,0-0.552,0.244-0.552,0.544
		C15.448,17.704,15.695,17.947,16,17.947z M19.862,17.947c0.305,0,0.552-0.244,0.552-0.544c0-0.3-0.247-0.544-0.552-0.544
		s-0.552,0.244-0.552,0.544C19.31,17.704,19.557,17.947,19.862,17.947z M23.724,17.947c0.305,0,0.552-0.244,0.552-0.544
		c0-0.3-0.247-0.544-0.552-0.544c-0.305,0-0.552,0.244-0.552,0.544C23.172,17.704,23.419,17.947,23.724,17.947z M27.586,17.947
		c0.305,0,0.552-0.244,0.552-0.544c0-0.3-0.247-0.544-0.552-0.544s-0.552,0.244-0.552,0.544
		C27.035,17.704,27.282,17.947,27.586,17.947z M4.414,21.754c0.305,0,0.552-0.244,0.552-0.544c0-0.3-0.247-0.544-0.552-0.544
		c-0.305,0-0.552,0.244-0.552,0.544C3.862,21.511,4.109,21.754,4.414,21.754z M8.276,21.754c0.305,0,0.552-0.244,0.552-0.544
		c0-0.3-0.247-0.544-0.552-0.544c-0.305,0-0.552,0.244-0.552,0.544C7.724,21.511,7.971,21.754,8.276,21.754z M12.138,21.754
		c0.305,0,0.552-0.244,0.552-0.544c0-0.3-0.247-0.544-0.552-0.544c-0.305,0-0.552,0.244-0.552,0.544
		C11.586,21.511,11.833,21.754,12.138,21.754z M16,21.754c0.305,0,0.552-0.244,0.552-0.544c0-0.3-0.247-0.544-0.552-0.544
		c-0.305,0-0.552,0.244-0.552,0.544C15.448,21.511,15.695,21.754,16,21.754z M19.862,21.754c0.305,0,0.552-0.244,0.552-0.544
		c0-0.3-0.247-0.544-0.552-0.544s-0.552,0.244-0.552,0.544C19.31,21.511,19.557,21.754,19.862,21.754z M23.724,21.754
		c0.305,0,0.552-0.244,0.552-0.544c0-0.3-0.247-0.544-0.552-0.544c-0.305,0-0.552,0.244-0.552,0.544
		C23.172,21.511,23.419,21.754,23.724,21.754z M27.586,21.754c0.305,0,0.552-0.244,0.552-0.544c0-0.3-0.247-0.544-0.552-0.544
		s-0.552,0.244-0.552,0.544C27.035,21.511,27.282,21.754,27.586,21.754z M4.414,26.105c0.305,0,0.552-0.244,0.552-0.544
		s-0.247-0.544-0.552-0.544c-0.305,0-0.552,0.243-0.552,0.544S4.109,26.105,4.414,26.105z M8.276,26.105
		c0.305,0,0.552-0.244,0.552-0.544s-0.247-0.544-0.552-0.544c-0.305,0-0.552,0.243-0.552,0.544S7.971,26.105,8.276,26.105z
		 M12.138,26.105c0.305,0,0.552-0.244,0.552-0.544s-0.247-0.544-0.552-0.544c-0.305,0-0.552,0.243-0.552,0.544
		S11.833,26.105,12.138,26.105z M16,26.105c0.305,0,0.552-0.244,0.552-0.544S16.305,25.018,16,25.018
		c-0.305,0-0.552,0.243-0.552,0.544S15.695,26.105,16,26.105z M19.862,26.105c0.305,0,0.552-0.244,0.552-0.544
		s-0.247-0.544-0.552-0.544s-0.552,0.243-0.552,0.544S19.557,26.105,19.862,26.105z"/>
</g>
</svg>
