<?xml version="1.0" encoding="utf-8"?>
<!-- Generator: Adobe Illustrator 17.0.0, SVG Export Plug-In . SVG Version: 6.00 Build 0)  -->
<!DOCTYPE svg PUBLIC "-//W3C//DTD SVG 1.1//EN" "http://www.w3.org/Graphics/SVG/1.1/DTD/svg11.dtd">
<svg version="1.1" id="Layer_1" xmlns="http://www.w3.org/2000/svg" xmlns:xlink="http://www.w3.org/1999/xlink" x="0px" y="0px"
	 width="68px" height="68px" viewBox="0 0 68 68" enable-background="new 0 0 68 68" xml:space="preserve">
<path fill="none" d="M20.06,27.54L15.3,32.3l15.3,15.3l34-34l-4.76-4.76L30.6,38.08L20.06,27.54z M61.2,34
	c0,14.96-12.24,27.2-27.2,27.2S6.8,48.96,6.8,34S19.04,6.8,34,6.8c2.72,0,5.1,0.34,7.48,1.02l5.44-5.44C42.84,1.02,38.42,0,34,0
	C15.3,0,0,15.3,0,34s15.3,34,34,34s34-15.3,34-34H61.2z"/>
</svg>
