<?xml version="1.0" encoding="utf-8"?>
<!-- Generator: Adobe Illustrator 17.0.0, SVG Export Plug-In . SVG Version: 6.00 Build 0)  -->
<!DOCTYPE svg PUBLIC "-//W3C//DTD SVG 1.1//EN" "http://www.w3.org/Graphics/SVG/1.1/DTD/svg11.dtd">
<svg version="1.1" id="Layer_1" xmlns="http://www.w3.org/2000/svg" xmlns:xlink="http://www.w3.org/1999/xlink" x="0px" y="0px"
	 width="132.957px" height="92.985px" viewBox="0 0 132.957 92.985" enable-background="new 0 0 132.957 92.985"
	 xml:space="preserve">
<g>
	<path fill="none" d="M64.988,32.914c-25.14,2.873-31.949,23.905-32.227,24.798c-0.383,1.229,0.316,2.536,1.558,2.914
		c0.231,0.071,0.464,0.105,0.692,0.105c1.005,0,1.938-0.645,2.248-1.648c0.059-0.187,6.151-19.008,28.268-21.535
		c1.29-0.147,2.217-1.306,2.069-2.583C67.447,33.686,66.273,32.765,64.988,32.914z M104.934,76.664h-8.64v-6.608h12.086
		c1.023,0,1.931-0.654,2.241-1.619c0.928-2.867,1.374-5.663,1.374-8.55c0-18.701-17.326-33.647-40.449-35.969l3.839-9.596
		c2.591-1.273,4.362-3.664,4.362-6.433c0-4.087-3.815-7.413-8.504-7.413H59.275c-4.691,0-8.508,3.324-8.508,7.413
		c0,2.712,1.696,5.061,4.194,6.354l3.901,9.748c-22.059,2.599-40.227,18.237-40.227,35.896c0,2.874,0.442,5.82,1.273,8.52
		c0.301,0.979,1.212,1.648,2.25,1.648h10.544v6.608H25.5c-5.192,0-9.415,3.659-9.415,8.16v2.914c0,2.942,3.103,5.246,7.061,5.246
		h84.143c3.96,0,7.061-2.304,7.061-5.246v-2.914C114.348,80.325,110.126,76.664,104.934,76.664z M55.472,7.89
		c0-1.491,1.739-2.75,3.801-2.75h11.969c2.055,0,3.797,1.259,3.797,2.75c0,1.49-1.742,2.749-3.797,2.749H59.273
		C57.213,10.639,55.472,9.38,55.472,7.89z M69.927,15.302l-3.328,8.319c-0.449-0.009-0.887-0.051-1.339-0.051
		c-0.496,0-0.986,0.049-1.48,0.063l-3.333-8.33H69.927z M26.317,65.394c-1.3,0-2.596-1.018-2.768-2.295
		c-0.14-1.066-0.212-2.145-0.212-3.21c0-16.861,19.59-31.655,41.921-31.655c23.565,0,42.027,13.905,42.027,31.655
		c0,1.098-0.076,2.161-0.228,3.222c-0.184,1.271-1.508,2.284-2.809,2.284H26.317z M91.586,70.057v6.608H37.407v-6.608H91.586z
		 M107.287,88.322H23.144c-1.464,0-2.276-0.565-2.354-0.583v-2.914c0-1.897,2.156-3.497,4.707-3.497h79.436
		c2.551,0,4.707,1.601,4.707,3.497l0.037,2.737C109.563,87.757,108.751,88.322,107.287,88.322z M18.434,34.415
		c0.718,0,1.424-0.323,1.888-0.935c0.779-1.03,0.564-2.492-0.476-3.264L3.764,18.301c-1.043-0.772-2.516-0.56-3.295,0.47
		c-0.779,1.031-0.565,2.494,0.475,3.264l16.083,11.917C17.448,34.264,17.945,34.415,18.434,34.415z M30.852,19.387
		c0.464,0.583,1.154,0.886,1.848,0.886c0.511,0,1.026-0.163,1.457-0.501c1.022-0.797,1.193-2.264,0.388-3.274L22.099,0.888
		c-0.805-1.012-2.29-1.182-3.304-0.385c-1.021,0.798-1.194,2.264-0.388,3.274L30.852,19.387z M99.158,20.132
		c0.421,0.313,0.917,0.465,1.404,0.465c0.719,0,1.425-0.324,1.889-0.935l12.03-15.934c0.777-1.031,0.563-2.493-0.478-3.265
		c-1.041-0.772-2.515-0.557-3.291,0.471L98.682,16.869C97.905,17.899,98.116,19.362,99.158,20.132z M132.451,18.617
		c-0.809-1.007-2.285-1.182-3.307-0.385l-15.756,12.331c-1.023,0.797-1.195,2.264-0.391,3.277c0.467,0.583,1.154,0.886,1.85,0.886
		c0.513,0,1.027-0.164,1.457-0.501l15.756-12.332C133.083,21.093,133.256,19.629,132.451,18.617z"/>
</g>
</svg>
