<?xml version="1.0" encoding="utf-8"?>
<!-- Generator: Adobe Illustrator 17.0.0, SVG Export Plug-In . SVG Version: 6.00 Build 0)  -->
<!DOCTYPE svg PUBLIC "-//W3C//DTD SVG 1.1//EN" "http://www.w3.org/Graphics/SVG/1.1/DTD/svg11.dtd">
<svg version="1.1" id="Layer_1" xmlns="http://www.w3.org/2000/svg" xmlns:xlink="http://www.w3.org/1999/xlink" x="0px" y="0px"
	 width="137.995px" height="119.997px" viewBox="0 0 137.995 119.997" enable-background="new 0 0 137.995 119.997"
	 xml:space="preserve">
<g>
	<path fill="none" d="M11.636,71.405L1.551,74.594c-1.176,0.374-1.819,1.6-1.439,2.744c0.306,0.924,1.184,1.506,2.129,1.506
		c0.227,0,0.463-0.033,0.692-0.107l10.086-3.189c1.176-0.374,1.819-1.601,1.439-2.744C14.077,71.661,12.816,71.037,11.636,71.405z
		 M1.548,37.563l10.085,3.186c0.227,0.072,0.463,0.107,0.692,0.107c0.945,0,1.824-0.584,2.129-1.505
		c0.38-1.144-0.263-2.371-1.439-2.743L2.93,33.421c-1.172-0.366-2.441,0.258-2.821,1.399C-0.271,35.964,0.373,37.19,1.548,37.563z
		 M33.362,12.702c0.459,0,0.919-0.136,1.316-0.415c1.002-0.708,1.22-2.069,0.495-3.043L28.941,0.9
		c-0.726-0.979-2.129-1.179-3.127-0.482c-1.002,0.708-1.221,2.068-0.495,3.043l6.232,8.343
		C31.989,12.391,32.67,12.702,33.362,12.702z M136.446,74.596l-10.085-3.189c-1.163-0.367-2.441,0.256-2.821,1.4
		c-0.38,1.144,0.263,2.37,1.439,2.744l10.085,3.188c0.227,0.073,0.463,0.108,0.692,0.108c0.945,0,1.823-0.582,2.129-1.505
		C138.265,76.196,137.622,74.969,136.446,74.596z M125.669,40.854c0.227,0,0.463-0.033,0.692-0.107l10.085-3.186
		c1.176-0.371,1.819-1.599,1.439-2.743c-0.38-1.139-1.645-1.763-2.821-1.397l-10.085,3.185c-1.176,0.372-1.819,1.601-1.439,2.743
		C123.845,40.27,124.724,40.854,125.669,40.854z M112.183,0.418c-1.002-0.702-2.397-0.496-3.127,0.482l-6.233,8.344
		c-0.726,0.974-0.507,2.335,0.495,3.043c0.397,0.28,0.858,0.415,1.316,0.415c0.692,0,1.374-0.31,1.811-0.898l6.233-8.343
		C113.404,2.486,113.185,1.126,112.183,0.418z M107.898,57.19c-0.039-0.109-0.094-0.207-0.153-0.305
		c-0.036-0.059-0.048-0.125-0.092-0.181l-11.139-14.04c-0.02-0.024-0.049-0.033-0.069-0.055c-0.115-0.133-0.254-0.234-0.407-0.326
		c-0.056-0.034-0.102-0.078-0.161-0.105c-0.184-0.085-0.389-0.129-0.603-0.147c-0.036-0.003-0.068-0.023-0.104-0.025
		c-0.003,0-0.008,0.003-0.008,0.003c-0.011,0-0.018-0.004-0.026-0.004H40.681c-0.016,0-0.03,0.008-0.046,0.01
		c-0.012,0-0.023-0.006-0.034-0.006c-0.066,0.003-0.123,0.039-0.188,0.049c-0.166,0.025-0.329,0.056-0.477,0.125
		c-0.074,0.035-0.133,0.088-0.202,0.131c-0.13,0.084-0.25,0.172-0.352,0.286c-0.023,0.025-0.058,0.037-0.079,0.064L27.322,57.781
		c-0.044,0.056-0.056,0.123-0.09,0.181c-0.061,0.099-0.115,0.196-0.155,0.307c-0.038,0.111-0.056,0.219-0.069,0.332
		c-0.008,0.069-0.041,0.127-0.041,0.199v7.783c0,0.067,0.031,0.123,0.039,0.188c0.013,0.109,0.031,0.214,0.067,0.32
		c0.038,0.116,0.091,0.218,0.153,0.321c0.031,0.051,0.039,0.11,0.076,0.159l39.156,51.738c0.02,0.027,0.054,0.037,0.076,0.062
		c0.033,0.039,0.069,0.076,0.107,0.113c0.01,0.011,0.018,0.022,0.03,0.032c0.043,0.039,0.074,0.09,0.12,0.125
		c0.02,0.016,0.048,0.023,0.069,0.037c0.039,0.027,0.084,0.043,0.125,0.065c0.059,0.033,0.112,0.064,0.175,0.092
		c0.015,0.006,0.026,0.015,0.041,0.021c0.007,0.003,0.012,0.007,0.016,0.01c0.048,0.018,0.092,0.035,0.141,0.049
		c0.02,0.006,0.035,0.021,0.054,0.026c0.15,0.039,0.298,0.055,0.445,0.055c0,0,0.015-0.004,0.021-0.004c0,0,0.008,0.004,0.013,0.004
		c0.017,0,0.031-0.01,0.048-0.01c0.105-0.005,0.211-0.011,0.318-0.037c0.038-0.008,0.066-0.035,0.102-0.044
		c0.168-0.046,0.318-0.114,0.461-0.206c0.025-0.015,0.054-0.025,0.078-0.043c0.01-0.006,0.015-0.015,0.023-0.021
		c0.128-0.094,0.237-0.199,0.334-0.325c0,0,0.002-0.002,0.003-0.002l38.414-50.657c0.038-0.051,0.048-0.111,0.079-0.165
		c0.061-0.099,0.112-0.2,0.15-0.312c0.036-0.11,0.056-0.216,0.069-0.329c0.008-0.063,0.038-0.118,0.038-0.183v-9.941
		c0-0.07-0.033-0.129-0.041-0.197C107.954,57.411,107.935,57.3,107.898,57.19z M104.536,58.289v2.303H83.75v-1.182l11.322-13.048
		L104.536,58.289z M91.416,45.355l-9.449,10.888L71.809,45.355H91.416z M80.278,59.443v1.149H56.921v-1.361l11.047-12.983
		L80.278,59.443z M64.232,45.355L55.029,56.17L44.653,45.355H64.232z M30.44,59.37l10.366-13.09l12.641,13.179v1.134H30.44V59.37z
		 M30.44,66.038v-2.094h23.008v2.68c0,0.129,0.016,0.26,0.048,0.386l10.695,43.621L30.44,66.038z M67.953,111.423L56.922,66.427
		v-2.483h23.356v2.463L67.953,111.423z M104.537,67.115L71.89,110.168l11.803-43.115c0.038-0.141,0.058-0.284,0.058-0.429v-2.68
		h20.787V67.115z"/>
</g>
</svg>
