<?xml version="1.0" encoding="utf-8"?>
<!-- Generator: Adobe Illustrator 17.0.0, SVG Export Plug-In . SVG Version: 6.00 Build 0)  -->
<!DOCTYPE svg PUBLIC "-//W3C//DTD SVG 1.1//EN" "http://www.w3.org/Graphics/SVG/1.1/DTD/svg11.dtd">
<svg version="1.1" id="Layer_1" xmlns="http://www.w3.org/2000/svg" xmlns:xlink="http://www.w3.org/1999/xlink" x="0px" y="0px"
	 width="23.005px" height="25.003px" viewBox="0 0 23.005 25.003" enable-background="new 0 0 23.005 25.003" xml:space="preserve">
<path fill="none" d="M20.748,9.536l-0.883,0.884l-5.298-5.303l0.883-0.884c0.976-0.977,2.557-0.977,3.532,0l1.766,1.768
	C21.722,6.977,21.722,8.559,20.748,9.536z M8.386,20.142c-0.244,0.244-0.244,0.64,0,0.884c0.244,0.245,0.639,0.245,0.883,0
	l9.713-9.722l-0.884-0.884L8.386,20.142z M3.97,15.723c-0.244,0.244-0.244,0.64,0,0.884c0.244,0.244,0.639,0.244,0.883,0
	l9.713-9.722l-0.883-0.884L3.97,15.723z M15.448,7.768l-9.712,9.723c-0.488,0.487-0.487,1.279,0,1.768
	c0.488,0.488,1.278,0.491,1.767-0.001l9.712-9.721L15.448,7.768z M7.5,21.907c-0.299-0.299-0.443-0.679-0.496-1.069
	c-0.127,0.02-0.255,0.038-0.385,0.038c-0.667,0-1.294-0.261-1.766-0.734c-0.472-0.474-0.732-1.1-0.732-1.768
	c0-0.122,0.018-0.24,0.035-0.359c-0.404-0.055-0.777-0.232-1.069-0.525c-0.028-0.028-0.038-0.066-0.064-0.097L1.5,23.5l6.083-1.525
	C7.557,21.951,7.526,21.933,7.5,21.907z"/>
</svg>
