<?xml version="1.0" encoding="utf-8"?>
<!-- Generator: Adobe Illustrator 17.0.0, SVG Export Plug-In . SVG Version: 6.00 Build 0)  -->
<!DOCTYPE svg PUBLIC "-//W3C//DTD SVG 1.1//EN" "http://www.w3.org/Graphics/SVG/1.1/DTD/svg11.dtd">
<svg version="1.1" id="Layer_1" xmlns="http://www.w3.org/2000/svg" xmlns:xlink="http://www.w3.org/1999/xlink" x="0px" y="0px"
	 width="192.998px" height="20.869px" viewBox="0 0 192.998 20.869" enable-background="new 0 0 192.998 20.869"
	 xml:space="preserve">
<g>
	<path fill="none" d="M10.62,1.65h1.212c0.12,0,0.215-0.062,0.291-0.186c0.075-0.124,0.112-0.328,0.112-0.608
		c0-0.272-0.034-0.475-0.1-0.607c-0.067-0.133-0.168-0.198-0.302-0.198H8.147C9.855,0.52,10.62,1.65,10.62,1.65z M13.653,16.184
		l-0.826,0.65l-1.73-0.568l-0.355,0.281l1.369,0.872l-0.719,0.567l-0.481-0.123l-0.282,0.222l0.518,0.37l0.224,0.604l0.28-0.22
		l0.004-0.509l0.719-0.566l0.486,1.567l0.356-0.28l-0.124-1.865l0.823-0.645C14.15,16.355,13.882,16.004,13.653,16.184z
		 M5.978,8.715c0.586,0.017,1.629-0.232,2.5-0.696C8.576,7.967,8.659,7.911,8.75,7.858v0.436c0,0.124,0.036,0.216,0.107,0.278
		c0.07,0.062,0.184,0.108,0.341,0.138c0.156,0.03,0.366,0.046,0.629,0.046c0.272,0,0.48-0.016,0.621-0.046
		c0.143-0.031,0.253-0.076,0.335-0.138c0.08-0.062,0.121-0.154,0.121-0.278V4.478c0.002-0.052,0.009-0.102,0.009-0.155
		c0-0.455-0.071-0.88-0.215-1.275c-0.143-0.395-0.382-0.88-0.791-1.398c0,0-0.313-0.333-0.63-0.545
		c-0.548-0.368-1.108-0.65-1.689-0.832C7.006,0.091,6.403,0,5.777,0c-1.528,0-2.77,0.418-3.726,1.255
		c-0.956,0.837-1.434,1.873-1.434,3.11c0,0.782,0.19,1.477,0.577,2.08C2.754,8.879,5.392,8.698,5.978,8.715z M3.78,1.766
		c0.518-0.596,1.175-0.894,1.97-0.894c0.796,0,1.455,0.31,1.977,0.927c0.523,0.618,0.784,1.459,0.784,2.523
		c0,1.146-0.257,2.026-0.771,2.639C7.227,7.576,6.568,7.883,5.764,7.883c-0.804,0-1.466-0.316-1.983-0.948
		C3.262,6.303,3.003,5.414,3.003,4.269C3.003,3.196,3.262,2.362,3.78,1.766z M10.705,18.703c-3.116,2-6.254,0.078-6.254,0.078
		c-2.036-1.59-1.878-4.366-1.878-4.366c0-2.17,1.383-4.14,3.956-4.055c0.437,0.016,0.856,0.117,1.24,0.278
		c0.366,0.164,0.66,0.36,0.906,0.545c0.048,0.038,0.103,0.07,0.149,0.11l0.002-0.001c0.286,0.224,0.571,0.429,0.757,0.549
		c0.193,0.126,0.365,0.188,0.514,0.188c0.128,0,0.238-0.059,0.327-0.176c0.089-0.117,0.134-0.325,0.134-0.62
		c0-0.136-0.005-0.25-0.015-0.34c-0.009-0.091-0.029-0.172-0.06-0.245c-0.029-0.071-0.066-0.133-0.111-0.187
		c-0.044-0.053-0.127-0.124-0.245-0.216c-0.12-0.09-0.31-0.201-0.573-0.33C9.506,9.891,9.45,9.871,9.399,9.848
		C9.37,9.835,9.342,9.824,9.313,9.811C9.11,9.726,8.895,9.645,8.654,9.575c0,0,0,0-0.001,0C8.01,9.383,7.362,9.304,6.819,9.304
		C3.024,9.304,0,11.415,0,15.3c0,4.71,4.598,5.569,4.598,5.569c3.556,0.749,6.278-1.937,6.278-1.937l-0.054-0.146L10.705,18.703z
		 M34.743,7.519h-2.241c-0.171-0.043-0.353-0.076-0.549-0.1c-0.195-0.023-0.405-0.036-0.63-0.036c-0.418,0-0.804,0.06-1.157,0.179
		c-0.355,0.12-0.658,0.291-0.912,0.514c-0.252,0.224-0.45,0.497-0.593,0.821c-0.143,0.324-0.214,0.69-0.214,1.099
		c0,0.351,0.049,0.649,0.149,0.896c0.099,0.247,0.233,0.469,0.403,0.665c-0.203,0.202-0.373,0.431-0.51,0.685
		c-0.138,0.255-0.207,0.544-0.207,0.868c0,0.234,0.065,0.451,0.194,0.654c0.129,0.202,0.329,0.369,0.598,0.502
		c-0.177,0.133-0.332,0.267-0.466,0.403c-0.135,0.135-0.248,0.277-0.339,0.426c-0.09,0.148-0.157,0.305-0.201,0.47
		c-0.044,0.164-0.065,0.335-0.065,0.51c0,0.276,0.06,0.533,0.181,0.768c0.121,0.237,0.316,0.44,0.585,0.609
		c0.269,0.17,0.614,0.304,1.034,0.402c0.421,0.098,0.93,0.148,1.528,0.148c0.621,0,1.16-0.065,1.616-0.195
		c0.456-0.131,0.832-0.308,1.125-0.535c0.293-0.225,0.513-0.487,0.655-0.784c0.143-0.298,0.214-0.611,0.214-0.94
		c0-0.314-0.064-0.588-0.19-0.824c-0.126-0.236-0.302-0.435-0.527-0.597c-0.225-0.161-0.492-0.286-0.799-0.374
		c-0.308-0.088-0.646-0.136-1.014-0.147l-1.937-0.08c-0.297-0.011-0.535-0.077-0.713-0.199c-0.178-0.123-0.267-0.276-0.267-0.462
		c0-0.159,0.031-0.3,0.094-0.422c0.064-0.122,0.144-0.231,0.243-0.326c0.149,0.117,0.358,0.214,0.63,0.29
		c0.272,0.077,0.559,0.116,0.861,0.116c0.429,0,0.819-0.058,1.171-0.175s0.655-0.286,0.911-0.507c0.255-0.22,0.452-0.49,0.589-0.808
		c0.137-0.319,0.206-0.685,0.206-1.1c0-0.249-0.038-0.49-0.115-0.721c-0.077-0.231-0.212-0.442-0.405-0.633h1.063
		c0.083,0,0.149-0.041,0.202-0.123c0.052-0.082,0.078-0.217,0.078-0.403c0-0.18-0.024-0.315-0.07-0.402
		C34.907,7.562,34.836,7.519,34.743,7.519z M29.51,15.297c0.065-0.108,0.156-0.223,0.268-0.343c0.112-0.12,0.257-0.245,0.433-0.378
		l1.919,0.064c0.446,0.011,0.799,0.099,1.06,0.267c0.261,0.167,0.391,0.405,0.391,0.713c0,0.18-0.037,0.353-0.11,0.518
		c-0.075,0.164-0.197,0.309-0.367,0.438c-0.17,0.127-0.395,0.229-0.672,0.306c-0.277,0.077-0.622,0.115-1.034,0.115
		c-0.648,0-1.153-0.089-1.516-0.267c-0.363-0.178-0.543-0.44-0.543-0.784c0-0.112,0.012-0.221,0.036-0.327
		C29.399,15.513,29.445,15.406,29.51,15.297z M32.802,10.538c-0.063,0.191-0.159,0.36-0.287,0.505
		c-0.129,0.146-0.292,0.261-0.491,0.343c-0.198,0.082-0.431,0.123-0.701,0.123c-0.5,0-0.889-0.136-1.166-0.406
		c-0.277-0.271-0.417-0.643-0.417-1.116c0-0.212,0.033-0.415,0.095-0.609c0.063-0.194,0.159-0.365,0.289-0.514
		c0.128-0.148,0.292-0.265,0.486-0.351c0.195-0.084,0.424-0.127,0.688-0.127c0.511,0,0.905,0.137,1.182,0.41
		c0.278,0.274,0.417,0.655,0.417,1.143C32.898,10.148,32.865,10.347,32.802,10.538z M38.16,4.061
		c-0.049-0.021-0.119-0.037-0.206-0.047c-0.087-0.011-0.2-0.016-0.338-0.016c-0.132,0-0.242,0.005-0.33,0.016
		c-0.087,0.011-0.158,0.026-0.21,0.047c-0.052,0.022-0.087,0.048-0.107,0.08S36.94,4.21,36.94,4.253v10.642
		c0,0.042,0.009,0.078,0.029,0.108c0.02,0.029,0.055,0.054,0.107,0.075c0.052,0.02,0.123,0.037,0.21,0.048
		c0.089,0.011,0.198,0.016,0.33,0.016c0.138,0,0.25-0.005,0.338-0.016c0.087-0.01,0.157-0.027,0.206-0.048
		c0.049-0.021,0.085-0.046,0.108-0.075c0.021-0.03,0.032-0.065,0.032-0.108V4.253c0-0.043-0.011-0.08-0.032-0.112
		C38.245,4.109,38.209,4.083,38.16,4.061z M46.974,8.395c-0.303-0.335-0.68-0.59-1.134-0.765c-0.453-0.176-0.985-0.263-1.595-0.263
		c-0.632,0-1.184,0.098-1.657,0.294c-0.473,0.197-0.867,0.474-1.182,0.829c-0.316,0.356-0.553,0.779-0.709,1.271
		c-0.157,0.491-0.235,1.029-0.235,1.613c0,0.606,0.074,1.148,0.223,1.625c0.148,0.478,0.372,0.884,0.676,1.219
		c0.302,0.334,0.68,0.589,1.132,0.764c0.454,0.177,0.985,0.264,1.596,0.264c0.626,0,1.177-0.1,1.652-0.299
		c0.476-0.2,0.871-0.477,1.187-0.833c0.316-0.356,0.553-0.779,0.712-1.271c0.16-0.491,0.24-1.028,0.24-1.613
		c0-0.6-0.076-1.139-0.227-1.617C47.502,9.136,47.275,8.729,46.974,8.395z M46.338,12.457c-0.089,0.345-0.228,0.643-0.416,0.892
		c-0.189,0.249-0.429,0.443-0.724,0.581c-0.294,0.138-0.639,0.207-1.039,0.207c-0.438,0-0.805-0.075-1.098-0.227
		c-0.293-0.151-0.528-0.356-0.703-0.613c-0.174-0.258-0.299-0.559-0.374-0.904c-0.076-0.345-0.112-0.715-0.112-1.107
		c0-0.409,0.045-0.786,0.137-1.131c0.092-0.345,0.231-0.644,0.42-0.896c0.189-0.252,0.429-0.448,0.72-0.585
		c0.291-0.138,0.639-0.207,1.044-0.207c0.438,0,0.804,0.076,1.098,0.227c0.294,0.152,0.526,0.358,0.698,0.617
		c0.172,0.261,0.295,0.563,0.37,0.908c0.075,0.345,0.112,0.712,0.112,1.1C46.471,11.732,46.427,12.112,46.338,12.457z M56.188,8.51
		c-0.24-0.348-0.55-0.625-0.932-0.832c-0.381-0.207-0.842-0.311-1.379-0.311c-0.22,0-0.429,0.021-0.627,0.063
		c-0.198,0.043-0.396,0.111-0.594,0.203c-0.198,0.094-0.4,0.214-0.606,0.362c-0.206,0.149-0.419,0.332-0.638,0.55V4.253
		c0-0.043-0.012-0.08-0.033-0.112c-0.022-0.032-0.058-0.058-0.107-0.08c-0.049-0.021-0.118-0.037-0.207-0.047
		c-0.087-0.011-0.199-0.016-0.337-0.016c-0.133,0-0.242,0.005-0.33,0.016C50.31,4.025,50.24,4.04,50.187,4.061
		c-0.052,0.022-0.088,0.048-0.107,0.08c-0.018,0.032-0.029,0.069-0.029,0.112v10.642c0,0.042,0.008,0.08,0.026,0.111
		c0.016,0.032,0.049,0.058,0.098,0.076c0.049,0.019,0.113,0.033,0.19,0.044c0.077,0.011,0.17,0.016,0.28,0.016
		c0.116,0,0.211-0.005,0.285-0.016c0.074-0.01,0.135-0.025,0.185-0.044c0.049-0.018,0.085-0.044,0.107-0.076
		c0.021-0.031,0.033-0.068,0.033-0.111v-0.877c0.214,0.218,0.417,0.404,0.609,0.558c0.193,0.155,0.385,0.282,0.577,0.382
		c0.192,0.101,0.388,0.174,0.589,0.22c0.201,0.045,0.418,0.068,0.655,0.068c0.511,0,0.964-0.093,1.361-0.279
		c0.394-0.186,0.729-0.454,1.001-0.805c0.271-0.35,0.478-0.774,0.618-1.271c0.14-0.496,0.209-1.055,0.209-1.676
		c0-0.521-0.054-1.014-0.164-1.482C56.601,9.266,56.426,8.859,56.188,8.51z M55.363,12.358c-0.07,0.327-0.18,0.621-0.332,0.884
		c-0.152,0.263-0.35,0.474-0.594,0.633c-0.243,0.16-0.536,0.24-0.879,0.24c-0.37,0-0.727-0.115-1.07-0.347
		c-0.343-0.231-0.702-0.566-1.077-1.007V9.901c0.215-0.266,0.418-0.487,0.609-0.662c0.19-0.175,0.374-0.318,0.551-0.43
		c0.177-0.112,0.352-0.192,0.523-0.239c0.171-0.048,0.345-0.072,0.522-0.072c0.354,0,0.65,0.081,0.887,0.243
		c0.238,0.162,0.428,0.375,0.573,0.641c0.143,0.266,0.244,0.571,0.302,0.916c0.059,0.345,0.087,0.701,0.087,1.068
		C55.467,11.701,55.432,12.031,55.363,12.358z M64.017,8.056c-0.231-0.225-0.533-0.397-0.906-0.514
		c-0.374-0.117-0.826-0.175-1.36-0.175c-0.285,0-0.568,0.025-0.849,0.075c-0.28,0.05-0.538,0.114-0.774,0.191
		c-0.237,0.077-0.446,0.163-0.627,0.255c-0.181,0.093-0.308,0.173-0.383,0.242c-0.073,0.069-0.121,0.142-0.14,0.219
		c-0.02,0.076-0.029,0.182-0.029,0.314c0,0.08,0.005,0.153,0.017,0.219c0.01,0.067,0.029,0.121,0.053,0.164
		c0.026,0.042,0.055,0.074,0.087,0.096c0.033,0.021,0.071,0.032,0.115,0.032c0.067,0,0.166-0.039,0.301-0.116
		c0.135-0.076,0.301-0.162,0.502-0.255c0.201-0.093,0.435-0.178,0.701-0.255c0.267-0.077,0.568-0.116,0.903-0.116
		c0.313,0,0.577,0.036,0.791,0.108c0.214,0.072,0.389,0.178,0.523,0.319c0.135,0.14,0.232,0.317,0.293,0.529
		c0.06,0.213,0.091,0.457,0.091,0.733v0.557h-1.022c-0.576,0-1.095,0.049-1.558,0.148c-0.461,0.098-0.852,0.245-1.17,0.441
		c-0.318,0.196-0.563,0.444-0.733,0.742c-0.17,0.297-0.256,0.647-0.256,1.051c0,0.345,0.061,0.653,0.186,0.924
		c0.123,0.271,0.296,0.499,0.518,0.684c0.224,0.187,0.492,0.328,0.808,0.427c0.316,0.098,0.668,0.148,1.058,0.148
		c0.445,0,0.867-0.093,1.265-0.279c0.399-0.186,0.76-0.446,1.084-0.781v0.717c0,0.065,0.02,0.112,0.058,0.144s0.1,0.056,0.185,0.071
		c0.085,0.016,0.199,0.024,0.343,0.024c0.148,0,0.26-0.008,0.337-0.024c0.078-0.015,0.138-0.039,0.182-0.071
		c0.044-0.032,0.066-0.08,0.066-0.144v-4.835c0-0.446-0.052-0.836-0.157-1.17C64.415,8.562,64.247,8.282,64.017,8.056z
		 M63.325,13.15c-0.335,0.362-0.655,0.63-0.96,0.805c-0.306,0.175-0.637,0.263-0.993,0.263c-0.44,0-0.782-0.111-1.027-0.33
		c-0.244-0.22-0.365-0.517-0.365-0.889c0-0.218,0.042-0.41,0.128-0.577c0.085-0.167,0.217-0.311,0.4-0.43
		c0.18-0.119,0.408-0.21,0.684-0.27c0.274-0.061,0.598-0.092,0.972-0.092h1.162V13.15z M68.562,4.061
		c-0.049-0.021-0.118-0.037-0.206-0.047c-0.087-0.011-0.201-0.016-0.337-0.016c-0.133,0-0.243,0.005-0.33,0.016
		c-0.088,0.011-0.158,0.026-0.21,0.047c-0.053,0.022-0.089,0.048-0.107,0.08c-0.019,0.032-0.029,0.069-0.029,0.112v10.642
		c0,0.042,0.01,0.078,0.029,0.108c0.019,0.029,0.055,0.054,0.107,0.075c0.053,0.02,0.122,0.037,0.21,0.048
		c0.087,0.011,0.198,0.016,0.33,0.016c0.136,0,0.25-0.005,0.337-0.016c0.089-0.01,0.157-0.027,0.206-0.048
		c0.049-0.021,0.085-0.046,0.107-0.075c0.023-0.03,0.034-0.065,0.034-0.108V4.253c0-0.043-0.011-0.08-0.034-0.112
		C68.647,4.109,68.612,4.083,68.562,4.061z M80.298,8.056c-0.231-0.225-0.534-0.397-0.907-0.514
		c-0.374-0.117-0.827-0.175-1.36-0.175c-0.286,0-0.569,0.025-0.849,0.075c-0.281,0.05-0.539,0.114-0.775,0.191
		c-0.236,0.077-0.445,0.163-0.626,0.255c-0.181,0.093-0.309,0.173-0.383,0.242c-0.075,0.069-0.122,0.142-0.14,0.219
		c-0.02,0.076-0.029,0.182-0.029,0.314c0,0.08,0.005,0.153,0.016,0.219c0.011,0.067,0.029,0.121,0.054,0.164
		c0.024,0.042,0.053,0.074,0.086,0.096c0.034,0.021,0.071,0.032,0.116,0.032c0.065,0,0.165-0.039,0.3-0.116
		c0.135-0.076,0.303-0.162,0.503-0.255c0.2-0.093,0.434-0.178,0.7-0.255c0.267-0.077,0.567-0.116,0.902-0.116
		c0.314,0,0.578,0.036,0.792,0.108c0.215,0.072,0.389,0.178,0.523,0.319c0.135,0.14,0.232,0.317,0.293,0.529
		c0.06,0.213,0.091,0.457,0.091,0.733v0.557h-1.022c-0.577,0-1.096,0.049-1.557,0.148c-0.462,0.098-0.852,0.245-1.171,0.441
		c-0.318,0.196-0.563,0.444-0.733,0.742c-0.17,0.297-0.255,0.647-0.255,1.051c0,0.345,0.061,0.653,0.185,0.924
		c0.123,0.271,0.296,0.499,0.519,0.684c0.223,0.187,0.492,0.328,0.808,0.427c0.316,0.098,0.669,0.148,1.059,0.148
		c0.445,0,0.866-0.093,1.266-0.279c0.398-0.186,0.759-0.446,1.084-0.781v0.717c0,0.065,0.02,0.112,0.057,0.144
		c0.039,0.032,0.1,0.056,0.186,0.071c0.085,0.016,0.199,0.024,0.342,0.024c0.148,0,0.261-0.008,0.338-0.024
		c0.077-0.015,0.137-0.039,0.182-0.071c0.043-0.032,0.065-0.08,0.065-0.144v-4.835c0-0.446-0.052-0.836-0.156-1.17
		C80.696,8.562,80.528,8.282,80.298,8.056z M79.606,13.15c-0.335,0.362-0.656,0.63-0.96,0.805c-0.305,0.175-0.636,0.263-0.993,0.263
		c-0.44,0-0.782-0.111-1.025-0.33c-0.245-0.22-0.368-0.517-0.368-0.889c0-0.218,0.043-0.41,0.128-0.577
		c0.086-0.167,0.218-0.311,0.4-0.43c0.181-0.119,0.409-0.21,0.684-0.27c0.274-0.061,0.599-0.092,0.972-0.092h1.163V13.15z
		 M84.843,7.543c-0.049-0.022-0.118-0.037-0.205-0.048c-0.089-0.011-0.201-0.016-0.339-0.016c-0.132,0-0.242,0.005-0.329,0.016
		c-0.089,0.011-0.158,0.026-0.21,0.048c-0.053,0.021-0.089,0.048-0.107,0.079c-0.02,0.032-0.029,0.067-0.029,0.104v7.169
		c0,0.042,0.009,0.078,0.029,0.108c0.018,0.029,0.054,0.054,0.107,0.075c0.052,0.02,0.122,0.037,0.21,0.048
		c0.088,0.011,0.198,0.016,0.329,0.016c0.138,0,0.25-0.005,0.339-0.016c0.087-0.01,0.156-0.027,0.205-0.048
		c0.049-0.021,0.085-0.046,0.107-0.075c0.022-0.03,0.033-0.065,0.033-0.108V7.726c0-0.037-0.011-0.072-0.033-0.104
		C84.928,7.59,84.892,7.564,84.843,7.543z M84.307,4.524c-0.325,0-0.547,0.056-0.668,0.167c-0.121,0.111-0.181,0.321-0.181,0.629
		c0,0.303,0.059,0.509,0.177,0.617c0.118,0.109,0.336,0.164,0.655,0.164c0.324,0,0.547-0.056,0.668-0.168
		c0.121-0.111,0.181-0.32,0.181-0.629c0-0.303-0.06-0.509-0.178-0.618C84.844,4.579,84.626,4.524,84.307,4.524z M91.98,7.742
		c-0.009-0.037-0.018-0.068-0.029-0.091c-0.011-0.024-0.033-0.049-0.067-0.076c-0.032-0.026-0.089-0.054-0.168-0.08
		c-0.08-0.026-0.169-0.05-0.268-0.072c-0.099-0.021-0.194-0.036-0.285-0.044c-0.09-0.007-0.172-0.011-0.243-0.011
		c-0.159,0-0.318,0.02-0.474,0.06c-0.156,0.04-0.314,0.111-0.474,0.215c-0.159,0.104-0.328,0.246-0.506,0.427
		c-0.179,0.18-0.369,0.415-0.572,0.701V7.726c0-0.043-0.011-0.078-0.029-0.108c-0.02-0.028-0.051-0.056-0.096-0.079
		c-0.044-0.024-0.105-0.039-0.185-0.048c-0.079-0.008-0.18-0.011-0.3-0.011c-0.127,0-0.229,0.003-0.306,0.011
		c-0.077,0.008-0.14,0.024-0.19,0.048C87.74,7.562,87.706,7.59,87.69,7.618c-0.017,0.03-0.025,0.065-0.025,0.108v7.169
		c0,0.042,0.009,0.078,0.029,0.108c0.019,0.029,0.055,0.054,0.107,0.075c0.052,0.02,0.122,0.037,0.21,0.048
		c0.087,0.011,0.197,0.016,0.328,0.016c0.138,0,0.25-0.005,0.339-0.016c0.088-0.01,0.157-0.027,0.206-0.048
		c0.049-0.021,0.085-0.046,0.107-0.075c0.023-0.03,0.034-0.065,0.034-0.108v-4.716c0.192-0.292,0.367-0.539,0.527-0.742
		c0.159-0.201,0.311-0.363,0.458-0.486c0.145-0.122,0.284-0.21,0.416-0.262c0.132-0.054,0.266-0.08,0.404-0.08
		c0.116,0,0.224,0.011,0.321,0.031c0.099,0.022,0.188,0.044,0.268,0.068c0.079,0.024,0.151,0.048,0.214,0.072
		c0.063,0.024,0.117,0.036,0.161,0.036c0.044,0,0.078-0.013,0.103-0.036c0.024-0.024,0.045-0.058,0.062-0.104
		c0.016-0.045,0.027-0.108,0.032-0.188C91.998,8.411,92,8.313,92,8.196c0-0.122-0.002-0.219-0.005-0.291
		C91.993,7.834,91.989,7.78,91.98,7.742z M99.855,8.499c-0.239-0.35-0.548-0.626-0.927-0.829c-0.379-0.201-0.838-0.302-1.376-0.302
		c-0.248,0-0.482,0.028-0.706,0.084c-0.222,0.055-0.439,0.138-0.65,0.247c-0.212,0.109-0.422,0.245-0.631,0.41
		c-0.209,0.164-0.425,0.358-0.651,0.582V7.726c0-0.048-0.009-0.086-0.029-0.116c-0.02-0.029-0.053-0.054-0.103-0.076
		c-0.049-0.02-0.111-0.035-0.185-0.044c-0.075-0.008-0.169-0.011-0.285-0.011c-0.11,0-0.203,0.003-0.28,0.011
		c-0.077,0.008-0.14,0.023-0.19,0.044c-0.049,0.022-0.082,0.047-0.098,0.076c-0.017,0.03-0.025,0.068-0.025,0.116v10.012
		c0,0.043,0.009,0.08,0.029,0.112c0.019,0.032,0.054,0.058,0.107,0.08c0.052,0.021,0.122,0.037,0.21,0.048
		c0.087,0.011,0.197,0.016,0.328,0.016c0.138,0,0.25-0.005,0.339-0.016c0.088-0.011,0.157-0.027,0.206-0.048
		c0.049-0.021,0.085-0.048,0.107-0.08c0.022-0.032,0.033-0.069,0.033-0.112v-3.584c0.198,0.186,0.385,0.349,0.561,0.486
		c0.176,0.138,0.353,0.252,0.532,0.342c0.179,0.091,0.361,0.158,0.548,0.2c0.187,0.042,0.39,0.064,0.61,0.064
		c0.516,0,0.975-0.095,1.377-0.283c0.401-0.188,0.737-0.456,1.009-0.804c0.272-0.348,0.478-0.771,0.619-1.27
		c0.14-0.5,0.21-1.062,0.21-1.689c0-0.52-0.056-1.012-0.165-1.477C100.268,9.257,100.094,8.849,99.855,8.499z M99.026,12.346
		c-0.073,0.329-0.184,0.626-0.336,0.892c-0.152,0.265-0.351,0.477-0.597,0.636c-0.246,0.16-0.541,0.24-0.883,0.24
		c-0.371,0-0.725-0.117-1.062-0.35c-0.338-0.234-0.694-0.571-1.07-1.012V9.901c0.216-0.261,0.42-0.479,0.614-0.658
		c0.194-0.177,0.378-0.321,0.555-0.43c0.176-0.109,0.351-0.189,0.523-0.24c0.171-0.05,0.345-0.075,0.522-0.075
		c0.354,0,0.65,0.08,0.887,0.239c0.238,0.16,0.427,0.372,0.568,0.637c0.141,0.266,0.241,0.57,0.299,0.912
		c0.057,0.342,0.087,0.697,0.087,1.063C99.134,11.684,99.097,12.017,99.026,12.346z M108.747,8.395
		c-0.302-0.335-0.68-0.59-1.134-0.765c-0.453-0.176-0.985-0.263-1.595-0.263c-0.632,0-1.184,0.098-1.657,0.294
		c-0.472,0.197-0.866,0.474-1.182,0.829c-0.316,0.356-0.553,0.779-0.709,1.271c-0.157,0.491-0.235,1.029-0.235,1.613
		c0,0.606,0.074,1.148,0.223,1.625c0.147,0.478,0.373,0.884,0.675,1.219c0.303,0.334,0.68,0.589,1.134,0.764
		c0.453,0.177,0.985,0.264,1.594,0.264c0.627,0,1.178-0.1,1.653-0.299c0.475-0.2,0.871-0.477,1.187-0.833
		c0.316-0.356,0.553-0.779,0.713-1.271c0.159-0.491,0.239-1.028,0.239-1.613c0-0.6-0.076-1.139-0.227-1.617
		C109.276,9.136,109.049,8.729,108.747,8.395z M108.111,12.457c-0.088,0.345-0.227,0.643-0.415,0.892
		c-0.188,0.249-0.43,0.443-0.723,0.581c-0.294,0.138-0.641,0.207-1.04,0.207c-0.438,0-0.804-0.075-1.097-0.227
		c-0.294-0.151-0.529-0.356-0.703-0.613c-0.174-0.258-0.3-0.559-0.374-0.904c-0.075-0.345-0.112-0.715-0.112-1.107
		c0-0.409,0.046-0.786,0.137-1.131c0.091-0.345,0.231-0.644,0.419-0.896c0.189-0.252,0.429-0.448,0.72-0.585
		c0.291-0.138,0.639-0.207,1.044-0.207c0.438,0,0.804,0.076,1.098,0.227c0.294,0.152,0.526,0.358,0.699,0.617
		c0.172,0.261,0.295,0.563,0.37,0.908c0.074,0.345,0.112,0.712,0.112,1.1C108.245,11.732,108.2,12.112,108.111,12.457z
		 M116.139,7.742c-0.008-0.037-0.018-0.068-0.029-0.091c-0.011-0.024-0.033-0.049-0.067-0.076c-0.032-0.026-0.089-0.054-0.168-0.08
		c-0.08-0.026-0.169-0.05-0.268-0.072c-0.099-0.021-0.194-0.036-0.285-0.044c-0.09-0.007-0.172-0.011-0.243-0.011
		c-0.159,0-0.318,0.02-0.474,0.06c-0.156,0.04-0.314,0.111-0.474,0.215c-0.159,0.104-0.329,0.246-0.507,0.427
		c-0.179,0.18-0.369,0.415-0.572,0.701V7.726c0-0.043-0.011-0.078-0.029-0.108c-0.02-0.028-0.051-0.056-0.096-0.079
		c-0.044-0.024-0.105-0.039-0.185-0.048c-0.079-0.008-0.18-0.011-0.3-0.011c-0.127,0-0.229,0.003-0.306,0.011
		c-0.077,0.008-0.14,0.024-0.19,0.048c-0.048,0.024-0.082,0.051-0.098,0.079c-0.017,0.03-0.025,0.065-0.025,0.108v7.169
		c0,0.042,0.009,0.078,0.029,0.108c0.019,0.029,0.055,0.054,0.107,0.075c0.052,0.02,0.122,0.037,0.21,0.048
		c0.087,0.011,0.197,0.016,0.328,0.016c0.138,0,0.25-0.005,0.339-0.016c0.088-0.01,0.157-0.027,0.206-0.048
		c0.049-0.021,0.085-0.046,0.107-0.075c0.023-0.03,0.034-0.065,0.034-0.108v-4.716c0.192-0.292,0.367-0.539,0.527-0.742
		c0.159-0.201,0.311-0.363,0.458-0.486c0.145-0.122,0.284-0.21,0.416-0.262c0.132-0.054,0.267-0.08,0.404-0.08
		c0.116,0,0.223,0.011,0.321,0.031c0.099,0.022,0.188,0.044,0.268,0.068c0.079,0.024,0.151,0.048,0.214,0.072
		c0.063,0.024,0.117,0.036,0.161,0.036s0.078-0.013,0.103-0.036c0.024-0.024,0.045-0.058,0.062-0.104
		c0.016-0.045,0.027-0.108,0.032-0.188c0.006-0.08,0.009-0.177,0.009-0.294c0-0.122-0.001-0.219-0.005-0.291
		C116.153,7.834,116.148,7.78,116.139,7.742z M121.463,8.611c0.082,0,0.149-0.043,0.198-0.127c0.049-0.086,0.074-0.224,0.074-0.415
		c0-0.101-0.005-0.186-0.016-0.254c-0.012-0.069-0.029-0.127-0.054-0.172c-0.024-0.045-0.053-0.076-0.086-0.095
		c-0.034-0.019-0.072-0.028-0.116-0.028h-1.904V5.814c0-0.037-0.011-0.071-0.033-0.104c-0.022-0.032-0.058-0.06-0.107-0.084
		c-0.049-0.024-0.118-0.041-0.206-0.052c-0.089-0.01-0.201-0.016-0.339-0.016c-0.132,0-0.242,0.006-0.328,0.016
		c-0.089,0.011-0.158,0.028-0.21,0.052c-0.053,0.024-0.089,0.052-0.107,0.084c-0.02,0.032-0.029,0.067-0.029,0.104v1.705h-1.031
		c-0.043,0-0.083,0.009-0.119,0.028c-0.036,0.019-0.065,0.05-0.087,0.095c-0.022,0.045-0.04,0.103-0.053,0.172
		c-0.014,0.069-0.02,0.153-0.02,0.254c0,0.191,0.024,0.329,0.074,0.415c0.049,0.085,0.115,0.127,0.198,0.127h1.038V12.8
		c0,0.415,0.039,0.774,0.119,1.079c0.08,0.305,0.208,0.558,0.383,0.757c0.176,0.198,0.401,0.348,0.675,0.446
		c0.275,0.099,0.605,0.148,0.99,0.148c0.127,0,0.252-0.008,0.379-0.023c0.126-0.017,0.245-0.036,0.358-0.061
		c0.113-0.023,0.213-0.054,0.3-0.091c0.089-0.038,0.154-0.077,0.198-0.12c0.044-0.042,0.077-0.109,0.099-0.199
		c0.022-0.09,0.033-0.212,0.033-0.367c0-0.096-0.005-0.175-0.016-0.239c-0.012-0.064-0.024-0.114-0.038-0.152
		c-0.013-0.037-0.034-0.062-0.058-0.076c-0.024-0.013-0.051-0.02-0.078-0.02c-0.044,0-0.093,0.013-0.147,0.036
		c-0.056,0.023-0.122,0.049-0.198,0.076c-0.077,0.026-0.166,0.052-0.263,0.076c-0.099,0.023-0.212,0.035-0.338,0.035
		c-0.39,0-0.661-0.126-0.812-0.378c-0.151-0.252-0.227-0.625-0.227-1.119V8.611H121.463z M132.964,13.338
		c-0.02-0.05-0.042-0.086-0.071-0.108c-0.027-0.021-0.06-0.031-0.098-0.031c-0.066,0-0.158,0.046-0.277,0.139
		c-0.118,0.093-0.263,0.196-0.436,0.311c-0.174,0.115-0.378,0.22-0.614,0.315c-0.237,0.096-0.511,0.143-0.825,0.143
		c-0.329,0-0.622-0.057-0.877-0.17c-0.257-0.115-0.471-0.288-0.647-0.522c-0.176-0.233-0.309-0.524-0.4-0.872
		c-0.091-0.348-0.136-0.753-0.136-1.215c0-0.924,0.175-1.629,0.523-2.115c0.35-0.486,0.851-0.728,1.505-0.728
		c0.319,0,0.594,0.044,0.829,0.131c0.233,0.088,0.433,0.185,0.597,0.291c0.165,0.107,0.301,0.203,0.409,0.291
		c0.107,0.088,0.202,0.132,0.285,0.132c0.071,0,0.132-0.041,0.181-0.124c0.049-0.082,0.074-0.228,0.074-0.435
		c0-0.095-0.003-0.175-0.009-0.239c-0.005-0.064-0.016-0.12-0.034-0.172c-0.016-0.05-0.036-0.094-0.061-0.132
		c-0.024-0.037-0.071-0.087-0.136-0.151c-0.067-0.063-0.172-0.141-0.318-0.231c-0.145-0.089-0.312-0.169-0.499-0.238
		c-0.187-0.069-0.392-0.125-0.614-0.168c-0.223-0.042-0.452-0.063-0.688-0.063c-0.489,0-0.943,0.078-1.363,0.235
		c-0.421,0.157-0.786,0.397-1.096,0.721c-0.31,0.325-0.555,0.74-0.734,1.247c-0.179,0.507-0.268,1.114-0.268,1.82
		c0,0.621,0.073,1.17,0.219,1.646c0.145,0.476,0.357,0.876,0.634,1.203c0.278,0.326,0.622,0.574,1.034,0.744
		c0.412,0.171,0.884,0.255,1.417,0.255c0.259,0,0.509-0.024,0.75-0.072s0.466-0.11,0.672-0.187c0.205-0.077,0.391-0.164,0.556-0.263
		c0.165-0.098,0.281-0.18,0.35-0.247c0.069-0.066,0.112-0.117,0.132-0.151c0.02-0.035,0.036-0.075,0.049-0.121
		c0.013-0.044,0.023-0.1,0.029-0.167c0.005-0.067,0.009-0.145,0.009-0.235c0-0.106-0.005-0.198-0.012-0.274
		C132.997,13.452,132.983,13.388,132.964,13.338z M140.843,8.395c-0.302-0.335-0.681-0.59-1.134-0.765
		c-0.453-0.176-0.985-0.263-1.595-0.263c-0.632,0-1.184,0.098-1.657,0.294c-0.472,0.197-0.866,0.474-1.182,0.829
		c-0.317,0.356-0.553,0.779-0.71,1.271s-0.234,1.029-0.234,1.613c0,0.606,0.074,1.148,0.223,1.625
		c0.148,0.478,0.373,0.884,0.675,1.219c0.303,0.334,0.68,0.589,1.134,0.764c0.453,0.177,0.985,0.264,1.595,0.264
		c0.626,0,1.177-0.1,1.652-0.299c0.476-0.2,0.871-0.477,1.188-0.833c0.315-0.356,0.553-0.779,0.713-1.271
		c0.158-0.491,0.238-1.028,0.238-1.613c0-0.6-0.075-1.139-0.227-1.617C141.372,9.136,141.145,8.729,140.843,8.395z M140.207,12.457
		c-0.089,0.345-0.227,0.643-0.416,0.892c-0.187,0.249-0.429,0.443-0.723,0.581c-0.294,0.138-0.64,0.207-1.04,0.207
		c-0.438,0-0.804-0.075-1.098-0.227c-0.294-0.151-0.528-0.356-0.703-0.613c-0.174-0.258-0.299-0.559-0.374-0.904
		c-0.075-0.345-0.112-0.715-0.112-1.107c0-0.409,0.046-0.786,0.138-1.131c0.091-0.345,0.231-0.644,0.419-0.896
		c0.188-0.252,0.428-0.448,0.719-0.585c0.291-0.138,0.64-0.207,1.043-0.207c0.438,0,0.805,0.076,1.098,0.227
		c0.295,0.152,0.527,0.358,0.699,0.617c0.172,0.261,0.295,0.563,0.37,0.908c0.075,0.345,0.112,0.712,0.112,1.1
		C140.341,11.732,140.297,12.112,140.207,12.457z M149.722,8.26c-0.208-0.271-0.482-0.487-0.819-0.649
		c-0.338-0.162-0.754-0.242-1.249-0.242c-0.423,0-0.841,0.105-1.257,0.315c-0.415,0.209-0.831,0.54-1.248,0.991V7.726
		c0-0.043-0.01-0.078-0.029-0.108c-0.02-0.028-0.051-0.056-0.095-0.079c-0.045-0.024-0.106-0.039-0.186-0.048
		c-0.079-0.008-0.18-0.011-0.3-0.011c-0.126,0-0.229,0.003-0.305,0.011c-0.078,0.008-0.14,0.024-0.19,0.048
		c-0.049,0.024-0.082,0.051-0.099,0.079c-0.017,0.03-0.024,0.065-0.024,0.108v7.169c0,0.042,0.009,0.078,0.028,0.108
		c0.019,0.029,0.055,0.054,0.107,0.075c0.052,0.02,0.122,0.037,0.21,0.048c0.088,0.011,0.198,0.016,0.329,0.016
		c0.138,0,0.25-0.005,0.339-0.016c0.087-0.01,0.156-0.027,0.206-0.048c0.049-0.021,0.086-0.046,0.107-0.075
		c0.022-0.03,0.033-0.065,0.033-0.108V9.884c0.373-0.451,0.731-0.794,1.072-1.027c0.34-0.233,0.681-0.35,1.021-0.35
		c0.264,0,0.496,0.048,0.697,0.143c0.201,0.096,0.364,0.233,0.491,0.414c0.125,0.181,0.222,0.396,0.288,0.645
		c0.066,0.25,0.099,0.579,0.099,0.988v4.198c0,0.042,0.011,0.078,0.034,0.108c0.022,0.029,0.057,0.054,0.107,0.075
		c0.049,0.02,0.119,0.037,0.206,0.048c0.087,0.011,0.201,0.016,0.337,0.016c0.133,0,0.242-0.005,0.33-0.016
		c0.088-0.01,0.157-0.027,0.206-0.048c0.05-0.021,0.085-0.046,0.107-0.075c0.023-0.03,0.034-0.065,0.034-0.108v-4.374
		c0-0.51-0.046-0.946-0.136-1.31C150.081,8.848,149.932,8.53,149.722,8.26z M158.236,13.338c-0.02-0.05-0.042-0.086-0.071-0.108
		c-0.027-0.021-0.06-0.031-0.099-0.031c-0.065,0-0.158,0.046-0.276,0.139c-0.118,0.093-0.263,0.196-0.437,0.311
		c-0.173,0.115-0.377,0.22-0.614,0.315c-0.236,0.096-0.511,0.143-0.824,0.143c-0.33,0-0.622-0.057-0.877-0.17
		c-0.256-0.115-0.471-0.288-0.648-0.522c-0.176-0.233-0.308-0.524-0.399-0.872c-0.092-0.348-0.136-0.753-0.136-1.215
		c0-0.924,0.174-1.629,0.523-2.115c0.35-0.486,0.851-0.728,1.505-0.728c0.319,0,0.594,0.044,0.828,0.131
		c0.234,0.088,0.434,0.185,0.597,0.291c0.165,0.107,0.301,0.203,0.408,0.291c0.107,0.088,0.202,0.132,0.285,0.132
		c0.071,0,0.132-0.041,0.181-0.124c0.049-0.082,0.074-0.228,0.074-0.435c0-0.095-0.002-0.175-0.009-0.239
		c-0.005-0.064-0.016-0.12-0.033-0.172c-0.016-0.05-0.037-0.094-0.061-0.132c-0.024-0.037-0.07-0.087-0.136-0.151
		c-0.067-0.063-0.172-0.141-0.318-0.231c-0.146-0.089-0.312-0.169-0.499-0.238c-0.187-0.069-0.392-0.125-0.614-0.168
		c-0.223-0.042-0.452-0.063-0.688-0.063c-0.489,0-0.943,0.078-1.364,0.235c-0.421,0.157-0.786,0.397-1.096,0.721
		c-0.31,0.325-0.556,0.74-0.735,1.247c-0.178,0.507-0.267,1.114-0.267,1.82c0,0.621,0.073,1.17,0.219,1.646
		c0.145,0.476,0.357,0.876,0.634,1.203c0.277,0.326,0.622,0.574,1.034,0.744c0.412,0.171,0.885,0.255,1.418,0.255
		c0.259,0,0.509-0.024,0.75-0.072c0.242-0.048,0.466-0.11,0.672-0.187c0.206-0.077,0.391-0.164,0.556-0.263
		c0.165-0.098,0.281-0.18,0.351-0.247c0.069-0.066,0.112-0.117,0.132-0.151c0.02-0.035,0.036-0.075,0.049-0.121
		c0.013-0.044,0.023-0.1,0.029-0.167c0.005-0.067,0.009-0.145,0.009-0.235c0-0.106-0.005-0.198-0.013-0.274
		C158.268,13.452,158.255,13.388,158.236,13.338z M160.948,4.524c-0.324,0-0.546,0.056-0.667,0.167
		c-0.121,0.111-0.181,0.321-0.181,0.629c0,0.303,0.059,0.509,0.177,0.617c0.118,0.109,0.337,0.164,0.656,0.164
		c0.324,0,0.546-0.056,0.667-0.168c0.121-0.111,0.181-0.32,0.181-0.629c0-0.303-0.06-0.509-0.178-0.618
		C161.485,4.579,161.267,4.524,160.948,4.524z M161.484,7.543c-0.049-0.022-0.118-0.037-0.206-0.048
		c-0.089-0.011-0.201-0.016-0.339-0.016c-0.132,0-0.241,0.005-0.328,0.016c-0.089,0.011-0.158,0.026-0.21,0.048
		c-0.053,0.021-0.089,0.048-0.107,0.079c-0.02,0.032-0.029,0.067-0.029,0.104v7.169c0,0.042,0.009,0.078,0.029,0.108
		c0.019,0.029,0.054,0.054,0.107,0.075c0.052,0.02,0.122,0.037,0.21,0.048c0.087,0.011,0.197,0.016,0.328,0.016
		c0.138,0,0.25-0.005,0.339-0.016c0.088-0.01,0.157-0.027,0.206-0.048c0.049-0.021,0.085-0.046,0.107-0.075
		c0.022-0.03,0.034-0.065,0.034-0.108V7.726c0-0.037-0.012-0.072-0.034-0.104C161.568,7.59,161.532,7.564,161.484,7.543z
		 M169.869,8.367c-0.264-0.305-0.601-0.548-1.01-0.729c-0.409-0.18-0.906-0.271-1.487-0.271c-0.544,0-1.036,0.091-1.476,0.274
		c-0.44,0.183-0.815,0.446-1.125,0.789c-0.311,0.342-0.548,0.759-0.713,1.25c-0.165,0.491-0.248,1.045-0.248,1.661
		c0,0.648,0.08,1.216,0.239,1.704c0.16,0.489,0.396,0.895,0.71,1.219c0.313,0.324,0.699,0.568,1.157,0.733
		c0.459,0.164,0.993,0.247,1.603,0.247c0.352,0,0.683-0.026,0.993-0.076s0.583-0.108,0.819-0.171
		c0.237-0.064,0.429-0.129,0.577-0.196c0.149-0.066,0.238-0.114,0.267-0.143c0.031-0.03,0.056-0.06,0.075-0.092
		c0.019-0.031,0.032-0.067,0.041-0.107c0.009-0.04,0.016-0.086,0.02-0.136c0.006-0.05,0.009-0.111,0.009-0.18
		c0-0.096-0.005-0.177-0.013-0.243c-0.008-0.065-0.021-0.117-0.037-0.155c-0.017-0.037-0.041-0.064-0.071-0.083
		c-0.031-0.018-0.065-0.027-0.104-0.027c-0.067,0-0.165,0.027-0.295,0.083c-0.129,0.056-0.295,0.119-0.496,0.188
		c-0.202,0.069-0.441,0.131-0.716,0.187c-0.277,0.056-0.591,0.084-0.944,0.084c-0.448,0-0.826-0.062-1.136-0.183
		c-0.308-0.123-0.56-0.298-0.753-0.526c-0.193-0.229-0.331-0.502-0.414-0.821c-0.082-0.319-0.124-0.677-0.124-1.075h4.885
		c0.139,0,0.261-0.044,0.368-0.131c0.108-0.088,0.161-0.235,0.161-0.442v-0.239c0-0.467-0.061-0.907-0.185-1.319
		C170.326,9.031,170.133,8.673,169.869,8.367z M165.221,10.609c0.011-0.292,0.063-0.572,0.158-0.84
		c0.093-0.269,0.226-0.503,0.397-0.706c0.171-0.201,0.383-0.363,0.639-0.486c0.253-0.122,0.549-0.183,0.887-0.183
		c0.658,0,1.154,0.196,1.488,0.589c0.335,0.393,0.493,0.935,0.478,1.625H165.221z M177.188,7.742
		c-0.009-0.037-0.018-0.068-0.029-0.091c-0.011-0.024-0.034-0.049-0.067-0.076c-0.032-0.026-0.09-0.054-0.169-0.08
		c-0.08-0.026-0.169-0.05-0.267-0.072c-0.099-0.021-0.194-0.036-0.285-0.044c-0.09-0.007-0.172-0.011-0.242-0.011
		c-0.16,0-0.318,0.02-0.474,0.06c-0.157,0.04-0.315,0.111-0.474,0.215c-0.159,0.104-0.328,0.246-0.507,0.427
		c-0.179,0.18-0.369,0.415-0.572,0.701V7.726c0-0.043-0.01-0.078-0.029-0.108c-0.02-0.028-0.051-0.056-0.095-0.079
		c-0.045-0.024-0.106-0.039-0.186-0.048c-0.078-0.008-0.179-0.011-0.299-0.011c-0.127,0-0.229,0.003-0.306,0.011
		c-0.078,0.008-0.14,0.024-0.19,0.048c-0.049,0.024-0.082,0.051-0.099,0.079c-0.017,0.03-0.024,0.065-0.024,0.108v7.169
		c0,0.042,0.009,0.078,0.029,0.108c0.019,0.029,0.054,0.054,0.107,0.075c0.053,0.02,0.122,0.037,0.21,0.048
		c0.088,0.011,0.198,0.016,0.329,0.016c0.138,0,0.25-0.005,0.339-0.016c0.088-0.01,0.156-0.027,0.205-0.048
		c0.049-0.021,0.086-0.046,0.108-0.075c0.022-0.03,0.033-0.065,0.033-0.108v-4.716c0.192-0.292,0.368-0.539,0.528-0.742
		c0.159-0.201,0.311-0.363,0.457-0.486c0.146-0.122,0.285-0.21,0.416-0.262c0.132-0.054,0.266-0.08,0.404-0.08
		c0.116,0,0.223,0.011,0.322,0.031c0.099,0.022,0.188,0.044,0.268,0.068c0.079,0.024,0.151,0.048,0.214,0.072
		c0.063,0.024,0.117,0.036,0.161,0.036c0.043,0,0.078-0.013,0.103-0.036c0.025-0.024,0.045-0.058,0.063-0.104
		c0.016-0.045,0.027-0.108,0.032-0.188c0.005-0.08,0.009-0.177,0.009-0.294c0-0.122-0.002-0.219-0.005-0.291
		C177.202,7.834,177.196,7.78,177.188,7.742z M184.613,7.519h-2.242c-0.17-0.043-0.353-0.076-0.549-0.1
		c-0.195-0.023-0.405-0.036-0.63-0.036c-0.417,0-0.804,0.06-1.158,0.179c-0.354,0.12-0.657,0.291-0.91,0.514
		c-0.253,0.224-0.451,0.497-0.594,0.821c-0.143,0.324-0.214,0.69-0.214,1.099c0,0.351,0.049,0.649,0.148,0.896
		c0.1,0.247,0.234,0.469,0.404,0.665c-0.203,0.202-0.373,0.431-0.511,0.685c-0.137,0.255-0.206,0.544-0.206,0.868
		c0,0.234,0.065,0.451,0.194,0.654c0.129,0.202,0.328,0.369,0.597,0.502c-0.175,0.133-0.331,0.267-0.465,0.403
		c-0.134,0.135-0.248,0.277-0.338,0.426c-0.091,0.148-0.158,0.305-0.202,0.47c-0.044,0.164-0.065,0.335-0.065,0.51
		c0,0.276,0.06,0.533,0.181,0.768c0.121,0.237,0.315,0.44,0.585,0.609c0.269,0.17,0.614,0.304,1.034,0.402
		c0.42,0.098,0.93,0.148,1.529,0.148c0.621,0,1.16-0.065,1.615-0.195c0.456-0.131,0.831-0.308,1.125-0.535
		c0.293-0.225,0.512-0.487,0.655-0.784c0.143-0.298,0.215-0.611,0.215-0.94c0-0.314-0.063-0.588-0.19-0.824
		c-0.126-0.236-0.302-0.435-0.528-0.597c-0.225-0.161-0.492-0.286-0.799-0.374c-0.308-0.088-0.646-0.136-1.014-0.147l-1.937-0.08
		c-0.297-0.011-0.535-0.077-0.713-0.199c-0.179-0.123-0.268-0.276-0.268-0.462c0-0.159,0.031-0.3,0.095-0.422
		c0.063-0.122,0.144-0.231,0.243-0.326c0.148,0.117,0.359,0.214,0.63,0.29c0.272,0.077,0.559,0.116,0.861,0.116
		c0.429,0,0.819-0.058,1.171-0.175c0.352-0.117,0.655-0.286,0.911-0.507c0.255-0.22,0.452-0.49,0.589-0.808
		c0.137-0.319,0.206-0.685,0.206-1.1c0-0.249-0.038-0.49-0.116-0.721c-0.076-0.231-0.211-0.442-0.403-0.633h1.063
		c0.082,0,0.15-0.041,0.202-0.123c0.052-0.082,0.078-0.217,0.078-0.403c0-0.18-0.023-0.315-0.07-0.402
		C184.776,7.562,184.706,7.519,184.613,7.519z M179.38,15.297c0.066-0.108,0.155-0.223,0.267-0.343
		c0.113-0.12,0.257-0.245,0.434-0.378l1.92,0.064c0.445,0.011,0.797,0.099,1.059,0.267c0.261,0.167,0.391,0.405,0.391,0.713
		c0,0.18-0.036,0.353-0.11,0.518c-0.075,0.164-0.197,0.309-0.367,0.438c-0.17,0.127-0.394,0.229-0.672,0.306
		c-0.278,0.077-0.622,0.115-1.034,0.115c-0.648,0-1.153-0.089-1.516-0.267c-0.362-0.178-0.543-0.44-0.543-0.784
		c0-0.112,0.012-0.221,0.036-0.327C179.268,15.513,179.314,15.406,179.38,15.297z M182.673,10.538
		c-0.064,0.191-0.16,0.36-0.289,0.505c-0.129,0.146-0.292,0.261-0.49,0.343c-0.198,0.082-0.431,0.123-0.701,0.123
		c-0.5,0-0.888-0.136-1.166-0.406c-0.277-0.271-0.416-0.643-0.416-1.116c0-0.212,0.031-0.415,0.095-0.609
		c0.064-0.194,0.159-0.365,0.289-0.514c0.129-0.148,0.291-0.265,0.486-0.351c0.195-0.084,0.425-0.127,0.688-0.127
		c0.511,0,0.905,0.137,1.183,0.41c0.277,0.274,0.416,0.655,0.416,1.143C182.767,10.148,182.735,10.347,182.673,10.538z
		 M192.813,9.442c-0.124-0.411-0.318-0.769-0.581-1.075c-0.263-0.305-0.601-0.548-1.01-0.729c-0.409-0.18-0.906-0.271-1.487-0.271
		c-0.544,0-1.036,0.091-1.476,0.274c-0.44,0.183-0.815,0.446-1.125,0.789c-0.31,0.342-0.547,0.759-0.713,1.25
		c-0.165,0.491-0.247,1.045-0.247,1.661c0,0.648,0.08,1.216,0.238,1.704c0.16,0.489,0.396,0.895,0.71,1.219
		c0.313,0.324,0.699,0.568,1.157,0.733c0.46,0.164,0.993,0.247,1.603,0.247c0.352,0,0.683-0.026,0.993-0.076
		s0.583-0.108,0.819-0.171c0.237-0.064,0.429-0.129,0.577-0.196c0.149-0.066,0.238-0.114,0.268-0.143
		c0.031-0.03,0.055-0.06,0.075-0.092c0.019-0.031,0.032-0.067,0.041-0.107c0.009-0.04,0.016-0.086,0.02-0.136
		c0.006-0.05,0.009-0.111,0.009-0.18c0-0.096-0.005-0.177-0.013-0.243c-0.008-0.065-0.02-0.117-0.037-0.155
		c-0.017-0.037-0.041-0.064-0.071-0.083c-0.031-0.018-0.064-0.027-0.103-0.027c-0.067,0-0.165,0.027-0.295,0.083
		c-0.129,0.056-0.295,0.119-0.496,0.188c-0.202,0.069-0.441,0.131-0.716,0.187c-0.277,0.056-0.591,0.084-0.944,0.084
		c-0.448,0-0.826-0.062-1.136-0.183c-0.308-0.123-0.56-0.298-0.753-0.526c-0.194-0.229-0.331-0.502-0.415-0.821
		c-0.082-0.319-0.124-0.677-0.124-1.075h4.885c0.139,0,0.261-0.044,0.368-0.131c0.108-0.088,0.161-0.235,0.161-0.442v-0.239
		C192.998,10.294,192.937,9.854,192.813,9.442z M187.584,10.609c0.011-0.292,0.063-0.572,0.158-0.84
		c0.093-0.269,0.226-0.503,0.397-0.706c0.171-0.201,0.383-0.363,0.639-0.486c0.253-0.122,0.55-0.183,0.887-0.183
		c0.658,0,1.154,0.196,1.488,0.589c0.335,0.393,0.494,0.935,0.478,1.625H187.584z M20,20h1V1h-1V20z"/>
</g>
</svg>
