<?xml version="1.0" encoding="utf-8"?>
<!-- Generator: Adobe Illustrator 17.0.0, SVG Export Plug-In . SVG Version: 6.00 Build 0)  -->
<!DOCTYPE svg PUBLIC "-//W3C//DTD SVG 1.1//EN" "http://www.w3.org/Graphics/SVG/1.1/DTD/svg11.dtd">
<svg version="1.1" id="Layer_1" xmlns="http://www.w3.org/2000/svg" xmlns:xlink="http://www.w3.org/1999/xlink" x="0px" y="0px"
	 width="50.024px" height="49.014px" viewBox="0 0 50.024 49.014" enable-background="new 0 0 50.024 49.014" xml:space="preserve">
<g>
	<path fill="none" d="M49.941,14.615c-0.73-8.469-6.419-14.615-13.538-14.615c-4.743,0-9.086,2.69-11.529,7.001
		C22.452,2.635,18.288,0,13.621,0C6.502,0,0.813,6.145,0.084,14.614c-0.058,0.374-0.294,2.343,0.425,5.554
		c1.037,4.631,3.433,8.844,6.926,12.179l17.428,16.667l17.727-16.665c3.493-3.337,5.889-7.548,6.926-12.181
		C50.235,16.958,49.998,14.989,49.941,14.615z M47.642,19.704c-0.947,4.23-3.141,8.083-6.34,11.137L24.874,46.287L8.728,30.845
		c-3.205-3.06-5.398-6.913-6.346-11.142c-0.681-3.038-0.401-4.755-0.4-4.766l0.014-0.102C2.621,7.414,7.51,2.027,13.621,2.027
		c4.509,0,8.479,2.92,10.362,7.619l0.886,2.213l0.886-2.213c1.854-4.627,6.033-7.618,10.649-7.618
		c6.11,0,10.999,5.386,11.637,12.903C48.043,14.948,48.323,16.665,47.642,19.704z M15.392,6.162c-5.305,0-9.621,4.548-9.621,10.138
		c0,0.561,0.43,1.014,0.962,1.014s0.962-0.453,0.962-1.014c0-4.472,3.453-8.111,7.697-8.111c0.532,0,0.962-0.453,0.962-1.013
		C16.354,6.615,15.923,6.162,15.392,6.162z"/>
</g>
</svg>
