<?xml version="1.0" encoding="utf-8"?>
<!-- Generator: Adobe Illustrator 17.0.0, SVG Export Plug-In . SVG Version: 6.00 Build 0)  -->
<!DOCTYPE svg PUBLIC "-//W3C//DTD SVG 1.1//EN" "http://www.w3.org/Graphics/SVG/1.1/DTD/svg11.dtd">
<svg version="1.1" id="Layer_1" xmlns="http://www.w3.org/2000/svg" xmlns:xlink="http://www.w3.org/1999/xlink" x="0px" y="0px"
	 width="141.98px" height="103.916px" viewBox="0 0 141.98 103.916" enable-background="new 0 0 141.98 103.916"
	 xml:space="preserve">
<path fill="none" d="M140.698,105h-19.454c-0.051,0-0.102-0.003-0.151-0.009c-0.049,0.006-0.1,0.009-0.15,0.009h-19.455
	c-0.635,0-1.177-0.458-1.283-1.084c-0.106-0.626,0.256-1.237,0.854-1.447l18.733-6.534v-75.14
	c-5.499,4.972-21.636,16.979-49.201,16.979c-26.964,0-42.683-11.491-48.383-16.651v74.813l18.733,6.535
	c0.599,0.209,0.96,0.82,0.854,1.447C41.69,104.542,41.147,105,40.513,105H21.058c-0.051,0-0.102-0.003-0.151-0.009
	c-0.05,0.006-0.1,0.009-0.151,0.009H1.301c-0.635,0-1.177-0.458-1.283-1.084c-0.106-0.626,0.256-1.237,0.854-1.447l18.733-6.535
	V19.142h-3.693c-0.718,0-1.301-0.583-1.301-1.302c0-0.718,0.583-1.301,1.301-1.301h3.693v-1.684
	c-3.508-0.618-6.181-3.689-6.181-7.371C13.425,3.357,16.781,0,20.907,0s7.482,3.357,7.482,7.485c0,3.682-2.673,6.754-6.181,7.371
	v1.684h3.693c0.718,0,1.301,0.583,1.301,1.301c0,0.718-0.583,1.302-1.301,1.302h-1.952c5.403,4.813,20.772,16.028,46.642,16.028
	c25.858,0,41.541-11.203,47.095-16.028h-1.587c-0.718,0-1.301-0.583-1.301-1.302c0-0.718,0.583-1.301,1.301-1.301h3.693v-1.684
	c-3.508-0.618-6.181-3.689-6.181-7.371c0-4.127,3.357-7.485,7.482-7.485s7.482,3.357,7.482,7.485c0,3.682-2.673,6.754-6.181,7.371
	v1.684h3.693c0.718,0,1.301,0.583,1.301,1.301c0,0.718-0.583,1.302-1.301,1.302h-3.693v76.793l18.732,6.534
	c0.599,0.209,0.96,0.821,0.854,1.447C141.875,104.542,141.333,105,140.698,105z M8.985,102.397h11.772
	c0.051,0,0.101,0.003,0.151,0.009c0.049-0.006,0.099-0.009,0.151-0.009H32.83l-11.923-4.159L8.985,102.397z M109.17,102.397h11.772
	c0.051,0,0.101,0.003,0.15,0.009c0.049-0.006,0.1-0.009,0.151-0.009h11.772l-11.922-4.159L109.17,102.397z M121.092,2.603
	c-2.691,0-4.88,2.19-4.88,4.882c0,2.691,2.189,4.881,4.88,4.881c2.691,0,4.88-2.19,4.88-4.881
	C125.972,4.793,123.784,2.603,121.092,2.603z M20.907,2.603c-2.691,0-4.88,2.19-4.88,4.882c0,2.691,2.189,4.881,4.88,4.881
	c2.69,0,4.879-2.19,4.879-4.881C25.787,4.793,23.598,2.603,20.907,2.603z M114.912,95.042H26.786c-0.578,0-1.088-0.382-1.249-0.938
	c-0.162-0.556,0.063-1.151,0.551-1.462l24.935-15.865c0.209-0.133,0.451-0.204,0.698-0.204h38.255c0.247,0,0.489,0.07,0.698,0.204
	l24.935,15.865c0.488,0.311,0.713,0.906,0.551,1.462C115.999,94.66,115.49,95.042,114.912,95.042z M31.256,92.439h79.186
	L89.598,79.177H52.1L31.256,92.439z"/>
</svg>
