<?xml version="1.0" encoding="utf-8"?>
<!-- Generator: Adobe Illustrator 17.0.0, SVG Export Plug-In . SVG Version: 6.00 Build 0)  -->
<!DOCTYPE svg PUBLIC "-//W3C//DTD SVG 1.1//EN" "http://www.w3.org/Graphics/SVG/1.1/DTD/svg11.dtd">
<svg version="1.1" id="Layer_1" xmlns="http://www.w3.org/2000/svg" xmlns:xlink="http://www.w3.org/1999/xlink" x="0px" y="0px"
	 width="209.55px" height="66.528px" viewBox="0 0 209.55 66.528" enable-background="new 0 0 209.55 66.528" xml:space="preserve">
<g>
	<g>
		<g>
			<g>
				<polygon fill="#FFFFFF" points="46.411,9.654 46.411,20.949 35.463,9.654 30.824,9.654 30.824,28.49 35.819,28.49 
					35.819,16.699 47.399,28.49 51.403,28.49 51.403,9.654 				"/>
				<path fill="#FFFFFF" d="M63.284,13.973V9.654h5.451V28.49h-5.451V13.973z"/>
				<path fill="#FFFFFF" d="M112.044,20.949v3.439h12.336v4.102h-17.667V9.654h17.589v4.127h-12.258v3.34h10.384v3.828H112.044z"/>
				<path fill="#FFFFFF" d="M90.476,13.92v14.57h-5.359V13.92h-6.903V9.654h19.178v4.266H90.476z"/>
				<path fill="#FFFFFF" d="M140.005,13.881h4.012c4.402,0.006,6.191,1.85,6.191,5.197c0,3.43-1.837,5.178-6.191,5.186h-4.012
					V13.881z M134.655,9.654V28.49h9.483c7.807-0.006,11.64-3.537,11.64-9.441c0-5.584-3.452-9.387-11.64-9.395H134.655z"/>
				<path fill="#FFFFFF" d="M20.563,20.182c0.001,5.76-3.586,8.65-10.245,8.65c-6.675,0-10.319-2.877-10.318-8.617V9.654h5.347
					v10.572c0.005,2.873,1.63,4.307,4.99,4.295c3.323-0.01,4.892-1.41,4.896-4.264V9.654h5.331V20.182z"/>
				<g>
					<path fill="#FFFFFF" d="M169.222,3.854c3.185-0.141,4.871,1.665,5.425,3.874c1.101,4.388-1.35,8.684-5.425,11.447l0.006-1.562
						c0.459-0.246,1.697-1.285,2.037-1.828c-0.521-0.184-1.462-0.314-2.047-0.305V13.5c0.98-0.059,2.466,0.123,3.391,0.332
						c0.395-0.605,0.609-1.117,0.755-1.807c-0.987-0.186-3.066-0.136-4.146,0.021V10.66c1.112-0.306,3.555-0.537,4.51-0.432
						c0.072-0.436,0.056-0.988-0.088-1.482c-0.95-0.075-3.343,0.205-4.418,0.528V8.152c0.992-0.422,3.237-0.817,4.189-0.881
						c-0.086-0.398-0.333-0.869-0.622-1.127c-0.891,0.068-2.542,0.414-3.567,0.754V5.842c0.605-0.281,1.917-0.603,2.604-0.649
						c-0.37-0.249-1.562-0.597-2.6-0.524L169.222,3.854z"/>
					<path fill="#FFFFFF" d="M171.916,3.396c7.358-1.359,10.691,1.893,8.692,9.828c-1.849,6.525-5.757,10.91-11.382,14.269v-3.434
						c0.328,0.271,0.749,0.799,1.037,1.277c0.628-0.312,1.469-0.906,1.901-1.383c-0.449-0.639-2.099-2.262-2.939-2.766
						c-0.002,0.008-0.002-0.422,0.001-0.445c0.765-0.406,2.093-1.387,2.669-2.146c0.943,0.404,2.808,1.932,3.227,2.484
						c0.669-0.678,1.462-1.783,1.799-2.519c-0.75-0.65-2.203-1.492-3.267-1.867c0.586-0.613,1.181-1.621,1.446-2.338
						c0.921,0.205,2.621,0.701,3.407,1.16c0.387-0.691,0.683-1.598,0.885-2.582c-0.797-0.32-2.43-0.617-3.488-0.729
						c0.142-0.441,0.241-1.556,0.212-2.015c1.21-0.027,2.876,0.146,3.765,0.356c0.127-0.532,0.168-1.16,0.065-1.801
						c-1.036-0.158-2.769-0.258-3.944-0.172c-0.012-0.482-0.178-1.209-0.354-1.55c0.936-0.153,2.833-0.171,3.926-0.046
						c-0.17-0.521-0.384-1.049-0.857-1.439c-0.764-0.07-2.513,0.012-3.595,0.205c-0.205-0.392-0.552-0.804-0.923-1.053
						c0.701-0.213,2.153-0.361,2.943-0.312c-0.643-0.33-1.862-0.643-3.742-0.398C172.707,3.539,171.916,3.396,171.916,3.396z"/>
					<path fill="#FFFFFF" d="M205.049,35.834V0h-35.814v2.954c5.122-1.626,15.32-0.702,21.239,4.616
						c4.812,4.326,8.104,9.801,8.506,17.35c0.246,4.594-0.942,8.678-2.072,10.914C198.248,35.834,204.246,35.834,205.049,35.834z"/>
					<path fill="#FFFFFF" d="M184.62,7.845c-0.668-0.296-1.699-0.601-2.52-0.642c0.152,0.504,0.227,1.121,0.246,1.767
						c0.822,0.106,2.241,0.503,2.961,0.818c0.27,0.831,0.286,1.558,0.279,2.378c-0.802-0.458-2.27-1.044-3.321-1.234
						c-0.03,0.727-0.202,1.783-0.453,2.572c1.092,0.35,2.676,1.158,3.413,1.688c-0.143,1.088-0.521,2.309-1.056,3.338
						c-0.803-0.715-2.421-1.723-3.452-2.16c-0.306,0.957-1.18,2.781-1.797,3.52c0.905,0.549,2.416,1.885,2.999,2.607
						c-0.672,1.207-1.458,2.166-2.325,2.897c-0.469-0.846-1.641-2.381-2.467-3.033c-0.659,1.098-2.243,2.699-3.324,3.385
						c0.734,0.717,1.741,2.129,2.191,2.939c-0.616,0.633-1.738,1.424-2.683,1.908c-0.343-1.111-0.903-2.267-1.531-3.223
						c-0.609,0.627-1.583,1.139-2.564,1.643v5.018c6.558-2.371,15.071-9.164,17.093-18.357c0.983-4.476-0.007-7.182-0.937-8.658
						c-1.524-2.418-4.317-2.897-5.583-3.082c0.54,0.284,1.299,0.961,1.677,1.559C183.531,5.866,184.274,7.12,184.62,7.845z"/>
					<path fill="#FFFFFF" d="M169.22,35.811v-0.424c2.084-0.625,4.51-1.945,5.536-2.846c0.36,0.867,0.723,2.285,0.832,3.104
						c0.931-0.57,2.053-1.328,2.822-2.231c-0.225-0.732-0.688-1.723-1.153-2.428c1.34-0.912,3.074-2.562,4.101-3.846
						c0.417,0.641,0.92,1.764,1.175,2.623c1.017-0.844,2.253-2.346,2.881-3.377c-0.388-0.701-1.031-1.543-1.705-2.182
						c1.005-1.199,2.098-3.301,2.417-4.389c0.575,0.324,1.572,1.438,1.937,2.006c0.717-1.318,1.146-2.688,1.392-4.195
						c-0.459-0.539-1.269-1.182-2.022-1.523c0.243-0.848,0.499-2.275,0.44-3.205c0.645,0.279,1.52,0.922,1.964,1.397
						c0.099-0.953,0.018-1.895-0.234-2.832c-0.409-0.415-1.332-0.96-1.888-1.121c-0.056-0.622-0.312-1.398-0.512-1.816
						c0.456,0.098,1.363,0.658,1.716,0.953c-0.353-0.856-1.326-1.698-2.073-1.975c-0.227-0.408-0.655-1.061-1.046-1.438
						c4.136,1.4,4.632,4.338,4.938,5.505c0.684,4.444-0.24,8.405-2.225,12.231c-2.515,4.856-5.607,7.658-10.977,12.008H169.22z"/>
					<path fill="#FFFFFF" d="M179.483,35.822c1.903-1.26,3.206-2.398,4.42-3.936c0.388,0.877,0.591,2.551,0.59,2.549
						c0.887-0.746,2.719-2.727,3.333-3.822c-0.184-0.604-0.605-1.555-0.944-1.986c1.204-1.191,2.393-3.371,2.82-4.826
						c0.496,0.498,0.991,1.365,1.181,1.932c0.769-1.408,1.478-3.133,1.814-5.043c-0.262-0.557-0.699-1.184-1.184-1.662
						c0.344-0.982,0.534-2.4,0.502-3.557c0.361,0.279,1.006,1.09,1.328,1.666c-0.008-1.99-0.207-3.268-1.398-4.33
						c-0.021-0.587-0.203-1.578-0.564-2.342c1.755,1.49,3.306,3.471,2.861,7.897c-0.67,6.672-4.604,13.033-9.248,17.461H179.483z"/>
					<path fill="#FFFFFF" d="M192.288,35.836c0.98-0.893,1.476-1.783,2.021-2.939c0.23,0.561,0.345,1.238,0.372,1.984
						c0.286-0.846,1.854-3.42,1.823-7.031c0.543-1.768,0.856-3.682,0.938-5.188c0.546,2.594,0.546,8.328-1.985,13.174H192.288z"/>
					<path fill="#FFFFFF" d="M195.742,20.211c0.116-0.697-0.049-1.82-0.543-2.562c0.017-0.527-0.107-1.822-0.215-2.393
						c1.038,1.42,1.914,3.004,1.578,6.736c-0.582,5.051-2.107,10.129-5.985,13.844h-1.504c0.027-0.434-0.037-1.555-0.27-2.311
						c1.443-1.486,3.012-3.945,3.596-5.746c0.406,0.828,0.621,1.602,0.727,2.592c1.017-1.814,1.793-4.455,2.008-6.25
						c-0.134-0.564-0.398-1.125-0.681-1.543c0.35-0.885,0.646-2.57,0.662-3.49C195.363,19.34,195.62,19.902,195.742,20.211z"/>
				</g>
				<path fill="#FFFFFF" d="M207.157,33.619c0-1.326,1.056-2.383,2.394-2.383c1.336,0,2.393,1.057,2.393,2.383
					c0,1.324-1.057,2.381-2.393,2.381C208.213,36,207.157,34.943,207.157,33.619z M211.577,33.619c0-1.123-0.934-2.016-2.026-2.016
					c-1.094,0-2.027,0.892-2.027,2.016c0,1.125,0.934,2.016,2.027,2.016C210.644,35.635,211.577,34.744,211.577,33.619z
					 M210.687,34.908h-0.44l-0.781-1.203h-0.44v1.203h-0.365v-2.607h1.135c0.471,0,0.93,0.127,0.93,0.689
					c0,0.514-0.36,0.703-0.825,0.715L210.687,34.908z M209.465,33.34c0.323,0,0.892,0.059,0.892-0.356
					c0-0.269-0.354-0.318-0.635-0.318h-0.697v0.674H209.465z"/>
			</g>
		</g>
	</g>
	<g>
		<path fill="#FFFFFF" d="M15.023,63.206c-1.985,0-3.692-0.509-5.076-1.315l0.369-2.146c1.407,0.854,2.907,1.315,4.684,1.315
			c2.446,0,3.646-1.107,3.646-2.953c0-3.923-8.56-2.216-8.56-7.962c0-2.722,1.754-4.845,5.699-4.845
			c1.685,0,3.322,0.323,4.569,0.923l-0.323,2.054c-1.362-0.529-2.677-0.831-4.13-0.831c-2.608,0-3.531,1.199-3.531,2.562
			c0,3.761,8.56,2.009,8.56,7.937C20.931,61.197,18.831,63.206,15.023,63.206z"/>
		<path fill="#FFFFFF" d="M25.474,46.822c-0.946,0-1.407-0.301-1.407-1.177c0-0.761,0.461-1.176,1.407-1.176
			c0.946,0,1.407,0.415,1.407,1.176C26.881,46.453,26.42,46.822,25.474,46.822z M24.367,62.883V49.199l2.192-0.115v13.799H24.367z"
			/>
		<path fill="#FFFFFF" d="M33.665,56.859c-0.67,0.187-1.039,0.555-1.039,1.017c0,0.461,0.369,0.854,1.2,0.923l3.346,0.275
			c3.322,0.278,4.407,1.386,4.407,3.324c0,2.514-1.569,4.13-5.861,4.13c-3.714,0-5.284-1.477-5.284-3.623
			c0-0.969,0.462-1.891,1.338-2.584c-0.647-0.369-1.154-1.015-1.154-1.916c0-0.876,0.6-1.684,1.731-2.146
			c-0.993-0.6-1.638-1.615-1.638-3.254c0-2.537,1.361-4.106,4.869-4.106c1.199,0,2.445,0.208,3.392,0.854l2.261-0.899l0.485,1.107
			l-1.662,1.153c0.231,0.531,0.369,1.131,0.369,1.892c0,2.608-1.269,4.062-4.845,4.062C34.934,57.068,34.288,57.022,33.665,56.859z
			 M33.457,60.714c-0.762,0.529-1.13,1.269-1.13,1.915c0,1.384,0.969,2.169,3.345,2.169c3.115,0,3.9-0.854,3.9-2.101
			c0-0.968-0.508-1.477-2.77-1.683L33.457,60.714z M32.88,53.053c0,1.938,1.13,2.399,2.676,2.399c2.123,0,2.769-0.784,2.769-2.399
			c0-1.799-0.808-2.422-2.723-2.422C33.595,50.631,32.88,51.415,32.88,53.053z"/>
		<path fill="#FFFFFF" d="M52.722,62.883v-9.091c0-2.031-1.084-2.885-3.115-2.885c-1.178,0-2.562,0.554-3.207,1.545v10.431h-2.192
			V49.177l1.569-0.116l0.369,1.454h0.069c0.946-1.038,2.446-1.638,3.992-1.638c2.908,0,4.684,1.638,4.684,4.915v9.091H52.722z"/>
		<path fill="#FFFFFF" d="M66.241,61.197l-0.069-0.022c-0.808,1.177-2.307,1.916-4.084,1.916c-2.515,0-4.222-1.316-4.222-4.407
			c0-2.585,1.661-4.177,4.938-4.177c1.177,0,2.307,0.23,3.161,0.531v-1.362c0-2.169-0.969-2.931-3.207-2.931
			c-1.454,0-2.631,0.255-3.853,0.83l-0.208-1.822c1.316-0.6,2.792-0.899,4.43-0.899c3.623,0,4.984,1.523,4.984,5.145v8.884h-1.662
			L66.241,61.197z M65.941,56.606c-0.346-0.208-1.362-0.508-2.747-0.508c-2.284,0-3.276,0.924-3.276,2.562
			c0,1.961,1.178,2.63,2.77,2.63c1.707,0,3.253-1.153,3.253-2.308V56.606z"/>
		<path fill="#FFFFFF" d="M74.685,50.837v8.446c0,1.431,0.762,2.007,2.007,2.007c0.393,0,0.877-0.069,1.154-0.185l0.139,1.662
			c-0.416,0.207-1.177,0.346-1.916,0.346c-2.354,0-3.577-1.315-3.577-3.761v-8.516h-1.915v-1.706h1.984l0.415-3.416l1.708-0.185
			v3.601h3.392v1.706H74.685z"/>
		<path fill="#FFFFFF" d="M91.204,58.359c0,3.047-1.73,4.778-5.354,4.778c-3.599,0-5.33-1.754-5.33-4.778v-9.229h2.169v9.183
			c0,1.846,1.061,2.815,3.184,2.815c2.077,0,3.161-0.946,3.161-2.815v-9.183h2.169V58.359z"/>
		<path fill="#FFFFFF" d="M94.824,62.883v-13.66l1.754-0.115l0.186,2.954h0.046c0.853-1.985,2.353-3.139,4.222-3.139
			c0.508,0,0.993,0.068,1.362,0.185l-0.139,2.215c-0.414-0.139-0.876-0.185-1.361-0.185c-2.147,0-3.877,1.822-3.877,4.776v6.969
			H94.824z"/>
		<path fill="#FFFFFF" d="M103.96,55.638c0-4.315,1.893-6.738,5.677-6.738c3.276,0,5.422,1.938,5.422,6.345
			c0,0.348-0.023,0.763-0.046,1.062h-8.814c0.115,3.623,1.453,4.868,4.407,4.868c1.385,0,2.561-0.299,3.738-0.876l0.254,1.846
			c-1.153,0.623-2.584,1.016-4.246,1.016C105.829,63.16,103.96,60.783,103.96,55.638z M113.052,54.807
			c-0.047-2.908-1.407-4.016-3.393-4.016c-2.33,0-3.369,1.294-3.507,4.016H113.052z"/>
		<path fill="#FFFFFF" d="M129.339,63.206c-1.984,0-3.691-0.509-5.077-1.315l0.369-2.146c1.408,0.854,2.908,1.315,4.686,1.315
			c2.444,0,3.645-1.107,3.645-2.953c0-3.923-8.561-2.216-8.561-7.962c0-2.722,1.754-4.845,5.698-4.845
			c1.686,0,3.324,0.323,4.57,0.923l-0.323,2.054c-1.36-0.529-2.677-0.831-4.131-0.831c-2.606,0-3.529,1.199-3.529,2.562
			c0,3.761,8.561,2.009,8.561,7.937C135.247,61.197,133.146,63.206,129.339,63.206z"/>
		<path fill="#FFFFFF" d="M137.319,55.638c0-4.315,1.894-6.738,5.678-6.738c3.275,0,5.422,1.938,5.422,6.345
			c0,0.348-0.023,0.763-0.045,1.062h-8.816c0.116,3.623,1.454,4.868,4.408,4.868c1.385,0,2.561-0.299,3.737-0.876l0.255,1.846
			c-1.153,0.623-2.584,1.016-4.246,1.016C139.19,63.16,137.319,60.783,137.319,55.638z M146.412,54.807
			c-0.046-2.908-1.408-4.016-3.393-4.016c-2.33,0-3.368,1.294-3.507,4.016H146.412z"/>
		<path fill="#FFFFFF" d="M151.439,62.883v-13.66l1.754-0.115l0.186,2.954h0.046c0.854-1.985,2.354-3.139,4.222-3.139
			c0.507,0,0.993,0.068,1.362,0.185l-0.139,2.215c-0.415-0.139-0.876-0.185-1.361-0.185c-2.146,0-3.877,1.822-3.877,4.776v6.969
			H151.439z"/>
		<path fill="#FFFFFF" d="M173.752,49.131l-5.331,13.752h-2.537l-5.331-13.752h2.423l3.554,10.061l0.6,1.753h0.069l0.576-1.753
			l3.553-10.061H173.752z"/>
		<path fill="#FFFFFF" d="M178.109,46.822c-0.947,0-1.408-0.301-1.408-1.177c0-0.761,0.461-1.176,1.408-1.176
			c0.947,0,1.407,0.415,1.407,1.176C179.517,46.453,179.057,46.822,178.109,46.822z M177.003,62.883V49.199l2.191-0.115v13.799
			H177.003z"/>
		<path fill="#FFFFFF" d="M191.977,51.553c-0.809-0.369-1.799-0.622-2.792-0.622c-2.978,0-4.085,1.43-4.085,4.983
			c0,3.876,1.406,5.307,4.039,5.307c1.084,0,2.099-0.276,2.93-0.784l0.162,1.8c-0.809,0.554-2.101,0.947-3.554,0.947
			c-3.854,0-5.84-2.215-5.84-7.27c0-4.638,1.802-6.991,5.908-6.991c1.224,0,2.469,0.276,3.369,0.669L191.977,51.553z"/>
		<path fill="#FFFFFF" d="M193.981,55.638c0-4.315,1.892-6.738,5.677-6.738c3.275,0,5.422,1.938,5.422,6.345
			c0,0.348-0.023,0.763-0.046,1.062h-8.815c0.116,3.623,1.454,4.868,4.408,4.868c1.384,0,2.562-0.299,3.738-0.876l0.254,1.846
			c-1.154,0.623-2.584,1.016-4.246,1.016C195.851,63.16,193.981,60.783,193.981,55.638z M203.072,54.807
			c-0.046-2.908-1.406-4.016-3.392-4.016c-2.329,0-3.368,1.294-3.508,4.016H203.072z"/>
	</g>
</g>
</svg>
