<?xml version="1.0" encoding="utf-8"?>
<!-- Generator: Adobe Illustrator 17.0.0, SVG Export Plug-In . SVG Version: 6.00 Build 0)  -->
<!DOCTYPE svg PUBLIC "-//W3C//DTD SVG 1.1//EN" "http://www.w3.org/Graphics/SVG/1.1/DTD/svg11.dtd">
<svg version="1.1" id="Layer_1" xmlns="http://www.w3.org/2000/svg" xmlns:xlink="http://www.w3.org/1999/xlink" x="0px" y="0px"
	 width="20px" height="20.869px" viewBox="0 0 20 20.869" enable-background="new 0 0 20 20.869" xml:space="preserve">
<g>
	<path fill="none" d="M4.509,7.909H0.62C0.278,7.909,0,8.189,0,8.536v3.929c0,0.346,0.278,0.627,0.62,0.627h3.889
		c0.343,0,0.62-0.281,0.62-0.627V8.536C5.13,8.189,4.852,7.909,4.509,7.909z M19.38,7.909h-3.889c-0.343,0-0.62,0.281-0.62,0.627
		v3.929c0,0.346,0.278,0.627,0.62,0.627h3.889c0.342,0,0.62-0.281,0.62-0.627V8.536C20,8.189,19.722,7.909,19.38,7.909z M11.945,0.5
		H8.055c-0.342,0-0.62,0.281-0.62,0.627v3.929c0,0.346,0.278,0.627,0.62,0.627h3.889c0.343,0,0.62-0.281,0.62-0.627V1.127
		C12.565,0.78,12.287,0.5,11.945,0.5z M4.509,0.5H0.62C0.278,0.5,0,0.78,0,1.127v3.929c0,0.346,0.278,0.627,0.62,0.627h3.889
		c0.343,0,0.62-0.281,0.62-0.627V1.127C5.13,0.78,4.852,0.5,4.509,0.5z M19.38,0.5h-3.889c-0.343,0-0.62,0.281-0.62,0.627v3.929
		c0,0.346,0.278,0.627,0.62,0.627h3.889c0.343,0,0.62-0.281,0.62-0.627V1.127C20,0.78,19.722,0.5,19.38,0.5z M11.945,7.909H8.055
		c-0.342,0-0.62,0.281-0.62,0.627v3.929c0,0.346,0.278,0.627,0.62,0.627h3.889c0.343,0,0.62-0.28,0.62-0.627V8.536
		C12.565,8.189,12.287,7.909,11.945,7.909z M11.945,15.317H8.055c-0.342,0-0.62,0.281-0.62,0.627v3.929
		c0,0.346,0.278,0.627,0.62,0.627h3.889c0.343,0,0.62-0.281,0.62-0.627v-3.929C12.565,15.598,12.287,15.317,11.945,15.317z
		 M4.509,15.318H0.62c-0.343,0-0.62,0.281-0.62,0.627v3.929C0,20.219,0.278,20.5,0.62,20.5h3.889c0.343,0,0.62-0.281,0.62-0.626
		v-3.929C5.13,15.598,4.852,15.318,4.509,15.318z M19.38,15.318h-3.889c-0.343,0-0.62,0.281-0.62,0.627v3.929
		c0,0.346,0.278,0.626,0.62,0.626h3.889c0.342,0,0.62-0.281,0.62-0.626v-3.929C20,15.598,19.722,15.318,19.38,15.318z"/>
</g>
</svg>
