<?xml version="1.0" encoding="utf-8"?>
<!-- Generator: Adobe Illustrator 17.0.0, SVG Export Plug-In . SVG Version: 6.00 Build 0)  -->
<!DOCTYPE svg PUBLIC "-//W3C//DTD SVG 1.1//EN" "http://www.w3.org/Graphics/SVG/1.1/DTD/svg11.dtd">
<svg version="1.1" id="Layer_1" xmlns="http://www.w3.org/2000/svg" xmlns:xlink="http://www.w3.org/1999/xlink" x="0px" y="0px"
	 width="32px" height="29.892px" viewBox="0 0 32 29.892" enable-background="new 0 0 32 29.892" xml:space="preserve">
<g>
	<path fill="none" d="M31.761,1.045c-0.199-0.164-0.465-0.197-0.697-0.098L0.766,14.074c-0.498,0.197-0.796,0.689-0.763,1.247
		c0.033,0.558,0.365,1.017,0.896,1.214l8.861,2.888v7.876c0,0.722,0.465,1.345,1.161,1.542c0.697,0.23,1.46-0.033,1.892-0.624
		l3.717-5.316l7.865,6.695c0.232,0.197,0.531,0.295,0.863,0.295c0.166,0,0.299-0.033,0.431-0.066
		c0.465-0.164,0.797-0.525,0.863-0.985l5.443-27.14C32.027,1.472,31.927,1.209,31.761,1.045z M15.865,21.523l-4.148,5.94
		c-0.133,0.197-0.299,0.164-0.398,0.131c-0.066,0-0.232-0.099-0.232-0.295v-8.336c0-0.295-0.166-0.525-0.465-0.623l-9.325-3.085
		l26.947-11.65L14.969,14.402c-0.299,0.23-0.332,0.656-0.1,0.919c0.133,0.164,0.332,0.23,0.498,0.23
		c0.133,0,0.299-0.033,0.432-0.164l11.515-9.353L15.865,21.523z M25.257,28.579l-7.965-6.76L30.035,4.622L25.257,28.579z
		 M13.177,15.846l-1.062,0.853c-0.299,0.23-0.332,0.656-0.1,0.919c0.133,0.164,0.332,0.23,0.531,0.23
		c0.133,0,0.299-0.033,0.431-0.131l1.062-0.853c0.299-0.23,0.332-0.656,0.1-0.919C13.907,15.682,13.476,15.649,13.177,15.846z"/>
</g>
</svg>
