<?xml version="1.0" encoding="utf-8"?>
<!-- Generator: Adobe Illustrator 17.0.0, SVG Export Plug-In . SVG Version: 6.00 Build 0)  -->
<!DOCTYPE svg PUBLIC "-//W3C//DTD SVG 1.1//EN" "http://www.w3.org/Graphics/SVG/1.1/DTD/svg11.dtd">
<svg version="1.1" id="Layer_1" xmlns="http://www.w3.org/2000/svg" xmlns:xlink="http://www.w3.org/1999/xlink" x="0px" y="0px"
	 width="20.107px" height="27.693px" viewBox="0 0 20.107 27.693" enable-background="new 0 0 20.107 27.693" xml:space="preserve">
<g>
	<path fill="none" d="M3.012,4.612C3.213,4.784,3.515,4.761,3.687,4.56c0.153-0.179,0.153-0.443,0-0.622L2.873,3.112L2.351,2.839
		h3.394c0.264,0,0.479-0.214,0.479-0.478c0-0.264-0.214-0.478-0.479-0.478H2.351L2.873,1.62l0.833-0.832
		c0.172-0.201,0.149-0.502-0.052-0.674c-0.179-0.153-0.443-0.153-0.623,0L1.116,2.027c-0.186,0.186-0.186,0.487,0,0.674L3.012,4.612
		z M11.49,2.839h2.394c0.264,0,0.479-0.214,0.479-0.478c0-0.264-0.214-0.478-0.479-0.478H11.49c-0.264,0-0.479,0.214-0.479,0.478
		C11.011,2.625,11.226,2.839,11.49,2.839z M15.798,2.839h0.957c0.264,0,0.479-0.214,0.479-0.478c0-0.264-0.214-0.478-0.479-0.478
		h-0.957c-0.264,0-0.479,0.214-0.479,0.478C15.32,2.625,15.534,2.839,15.798,2.839z M9.096,25.781H8.139
		c-0.264,0-0.479,0.214-0.479,0.478c0,0.264,0.214,0.478,0.479,0.478h0.957c0.264,0,0.479-0.214,0.479-0.478
		C9.575,25.995,9.361,25.781,9.096,25.781z M19.149,23.429c0,0,0,0,0-0.038v-1.324c-0.001-0.359,0.042-0.717,0.129-1.066
		l0.412-1.639c0.284-1.13,0.368-2.301,0.249-3.46l-0.479-3.016c-0.23-1.386-1.432-2.402-2.839-2.399h-0.345
		c-0.057,0.001-0.114,0.012-0.168,0.033c-0.445-0.614-1.155-0.982-1.915-0.989h-0.311c-0.214,0-0.425,0.047-0.618,0.139
		c-0.439-0.679-1.192-1.091-2.001-1.095h-0.254c-0.163,0.001-0.325,0.03-0.479,0.086V3.795c0-1.056-0.857-1.912-1.915-1.912H8.527
		c-1.011-0.002-1.849,0.78-1.915,1.788l-0.689,10.84c-0.587-0.21-1.12-0.548-1.561-0.989l-0.431-0.43c-0.934-0.93-2.446-0.93-3.38,0
		l-0.273,0.263c-0.334,0.335-0.372,0.863-0.091,1.243l0.905,1.214c0.163,0.224,0.313,0.457,0.45,0.698L1.643,16.7
		c1.11,1.89,2.687,3.463,4.581,4.569c0.296,0.171,0.478,0.486,0.479,0.827v1.295c-0.001,0.018-0.001,0.035,0,0.053
		c-0.637,0.478-0.957,1.243-0.957,2.337v1.434c0,0.264,0.214,0.478,0.479,0.478c0.264,0,0.479-0.214,0.479-0.478v-1.434
		c0-1.377,0.536-1.912,1.915-1.912h8.617c1.436,0,1.915,0.478,1.915,1.912h-8.138c-0.264,0-0.479,0.214-0.479,0.478
		c0,0.264,0.214,0.478,0.479,0.478h8.138v0.478c0,0.264,0.214,0.478,0.479,0.478c0.264,0,0.479-0.214,0.479-0.478v-1.434
		C20.107,24.662,19.781,23.869,19.149,23.429z M18.824,19.152l-0.412,1.639c-0.126,0.415-0.2,0.843-0.22,1.276v0.956
		c-0.314-0.072-0.635-0.109-0.957-0.11H8.618c-0.322,0-0.644,0.036-0.957,0.11v-0.922c0.004-0.687-0.361-1.324-0.957-1.668
		c-1.747-1.019-3.202-2.469-4.227-4.211L2.395,16.05c-0.16-0.271-0.336-0.533-0.527-0.784l-0.91-1.228l0.263-0.268
		c0.561-0.559,1.469-0.559,2.03,0l0.431,0.43c0.604,0.608,1.351,1.055,2.173,1.3l-0.062,1.008c-0.019,0.259,0.172,0.486,0.431,0.511
		h0.048c0.254,0,0.464-0.197,0.479-0.449L7.574,3.733c0.033-0.504,0.452-0.895,0.957-0.894h0.086c0.529,0,0.957,0.428,0.957,0.956
		v8.125c0,0.264,0.214,0.478,0.479,0.478c0.264,0,0.479-0.214,0.479-0.478v-1.912c0-0.264,0.214-0.478,0.479-0.478h0.254
		c0.721-0.007,1.335,0.52,1.436,1.233l0.225,1.701c0.034,0.238,0.238,0.413,0.479,0.411h0.067c0.262-0.034,0.447-0.274,0.413-0.536
		c0-0.003-0.001-0.006-0.001-0.009l-0.244-1.706c0,0,0-0.033,0-0.053c0.072-0.051,0.156-0.08,0.244-0.086h0.292
		c0.71-0.009,1.32,0.5,1.436,1.2l0.187,1.271c0.04,0.232,0.243,0.4,0.479,0.397h0.081c0.261-0.04,0.44-0.285,0.4-0.546
		c-0.001-0.005-0.002-0.009-0.002-0.014l-0.211-1.271c0-0.029,0-0.057,0-0.086h0.11c0.952-0.011,1.767,0.677,1.915,1.615
		l0.479,2.992C19.154,17.086,19.078,18.137,18.824,19.152z"/>
</g>
</svg>
