<?xml version="1.0" encoding="utf-8"?>
<!-- Generator: Adobe Illustrator 17.0.0, SVG Export Plug-In . SVG Version: 6.00 Build 0)  -->
<!DOCTYPE svg PUBLIC "-//W3C//DTD SVG 1.1//EN" "http://www.w3.org/Graphics/SVG/1.1/DTD/svg11.dtd">
<svg version="1.1" id="Layer_1" xmlns="http://www.w3.org/2000/svg" xmlns:xlink="http://www.w3.org/1999/xlink" x="0px" y="0px"
	 width="44.001px" height="35px" viewBox="0 0 44.001 35" enable-background="new 0 0 44.001 35" xml:space="preserve">
<path fill="none" d="M42.787,0.647c-1.745,1.012-3.679,1.748-5.736,2.146C35.405,1.071,33.061,0,30.464,0
	c-4.986,0-9.028,3.958-9.028,8.837c0,0.691,0.081,1.367,0.234,2.013C14.169,10.481,7.517,6.962,3.065,1.616
	C2.288,2.919,1.845,4.437,1.845,6.058c0,3.067,1.595,5.772,4.015,7.355c-1.48-0.049-2.87-0.447-4.088-1.109v0.11
	c0,4.282,3.112,7.852,7.239,8.668c-0.756,0.2-1.553,0.31-2.378,0.31c-0.583,0-1.147-0.058-1.7-0.161
	c1.149,3.51,4.482,6.066,8.43,6.139c-3.088,2.369-6.982,3.781-11.209,3.781c-0.729,0-1.447-0.042-2.154-0.121
	C3.996,33.536,8.738,35,13.837,35C30.44,35,39.519,21.533,39.519,9.854L39.489,8.71c1.769-1.241,3.303-2.798,4.511-4.568
	c-1.619,0.702-3.356,1.179-5.183,1.392C40.682,4.439,42.11,2.706,42.787,0.647z"/>
</svg>
