<?xml version="1.0" encoding="utf-8"?>
<!-- Generator: Adobe Illustrator 17.0.0, SVG Export Plug-In . SVG Version: 6.00 Build 0)  -->
<!DOCTYPE svg PUBLIC "-//W3C//DTD SVG 1.1//EN" "http://www.w3.org/Graphics/SVG/1.1/DTD/svg11.dtd">
<svg version="1.1" id="Layer_1" xmlns="http://www.w3.org/2000/svg" xmlns:xlink="http://www.w3.org/1999/xlink" x="0px" y="0px"
	 width="23.005px" height="25.003px" viewBox="0 0 23.005 25.003" enable-background="new 0 0 23.005 25.003" xml:space="preserve">
<g>
	<path fill="none" d="M13.749,19.768c-0.551,1.047-1.328,1.878-2.33,2.493c-1.003,0.615-2.097,0.923-3.284,0.923
		c-1.742,0-3.232-0.622-4.47-1.868c-1.238-1.245-1.857-2.744-1.857-4.496c0-1.26,0.344-2.417,1.031-3.473
		c0.687-1.056,1.605-1.84,2.754-2.351l-0.24-1.861c-1.601,0.587-2.893,1.586-3.877,2.998C0.492,13.543,0,15.106,0,16.82
		c0,1.478,0.365,2.844,1.094,4.099c0.73,1.255,1.718,2.249,2.966,2.983c1.247,0.734,2.606,1.101,4.074,1.101
		c1.761,0,3.357-0.526,4.787-1.577c1.431-1.051,2.42-2.424,2.966-4.12l-1.44-2.898C14.532,17.601,14.299,18.721,13.749,19.768z
		 M22.186,17.829l-2.796,1.407l-3.22-6.464c-0.16-0.331-0.429-0.497-0.805-0.497H8.939l-0.226-1.818h5.748V8.637H8.488L7.965,4.532
		c0.64,0.066,1.205-0.13,1.695-0.589c0.49-0.459,0.734-1.016,0.734-1.669c0-0.625-0.221-1.16-0.664-1.605
		C9.288,0.223,8.756,0,8.135,0C7.626,0,7.17,0.149,6.765,0.447C6.36,0.746,6.092,1.136,5.96,1.619
		C5.884,1.866,5.856,2.065,5.875,2.216l1.356,11.067c0.028,0.228,0.129,0.419,0.304,0.576c0.174,0.156,0.374,0.234,0.6,0.234H14.8
		l3.376,6.776c0.16,0.331,0.428,0.497,0.805,0.497c0.151,0,0.287-0.033,0.409-0.099l3.615-1.819L22.186,17.829z"/>
</g>
</svg>
